<?xml version="1.0" standalone="no"?>
<!DOCTYPE svg PUBLIC "-//W3C//DTD SVG 20010904//EN"
 "http://www.w3.org/TR/2001/REC-SVG-20010904/DTD/svg10.dtd">
<svg version="1.0" xmlns="http://www.w3.org/2000/svg"
 width="400.000000pt" height="387.000000pt" viewBox="0 0 400.000000 387.000000"
 preserveAspectRatio="xMidYMid meet">

<g transform="translate(0.000000,387.000000) scale(0.100000,-0.100000)"
fill="#000000" stroke="none">
<path d="M1890 3794 c-589 -164 -1103 -483 -1517 -940 -118 -131 -116 -127
-121 -218 -7 -115 21 -360 59 -526 83 -356 247 -699 490 -1020 97 -129 110
-141 159 -157 46 -16 246 -69 290 -77 239 -47 443 -66 700 -66 364 0 678 42
1000 132 84 24 104 39 192 146 200 244 388 617 467 930 51 200 82 404 88 583
4 126 3 139 -15 160 -239 286 -407 440 -669 612 -276 181 -514 295 -843 404
-158 52 -205 58 -280 37z m199 -29 c625 -187 1162 -528 1523 -965 l70 -85 -6
-155 c-21 -563 -231 -1115 -579 -1521 l-65 -76 -114 -32 c-632 -174 -1353
-172 -1913 5 -90 28 -85 24 -216 197 -331 439 -519 973 -519 1473 l0 103 74
88 c323 385 827 734 1303 904 70 24 305 96 322 99 2 0 56 -16 120 -35z"/>
<path d="M1905 3735 c-470 -117 -1013 -437 -1375 -811 -59 -60 -124 -134 -147
-164 -37 -50 -41 -62 -47 -135 -19 -231 56 -602 185 -911 97 -233 246 -486
379 -641 l62 -73 106 -34 c59 -19 150 -43 202 -54 497 -107 1221 -79 1650 63
71 24 79 29 145 106 206 237 362 542 469 914 62 217 103 509 91 638 -7 64 -11
74 -69 150 -286 381 -941 800 -1471 943 -100 27 -109 27 -180 9z m124 -31 c2
-2 -7 -4 -22 -4 -14 0 -29 5 -32 10 -6 10 42 4 54 -6z m-69 -4 c0 -13 -11 -13
-30 0 -12 8 -11 10 8 10 12 0 22 -4 22 -10z m-93 -16 c-3 -3 -12 -4 -19 -1 -8
3 -5 6 6 6 11 1 17 -2 13 -5z m438 -64 c28 -10 43 -19 35 -19 -14 0 -101 36
-90 38 3 1 28 -8 55 -19z m-652 -2 c-13 -6 -23 -15 -23 -20 0 -5 -5 -6 -11 -2
-12 7 26 34 46 33 6 0 0 -5 -12 -11z m756 -44 c14 -12 -19 -1 -35 12 -18 14
-18 14 6 3 14 -6 27 -13 29 -15z m-869 -4 c-8 -5 -19 -10 -25 -10 -5 0 -3 5 5
10 8 5 20 10 25 10 6 0 3 -5 -5 -10z m905 -10 c3 -6 -1 -7 -9 -4 -18 7 -21 14
-7 14 6 0 13 -4 16 -10z m-950 -10 c-3 -5 -12 -10 -18 -10 -7 0 -6 4 3 10 19
12 23 12 15 0z m-63 -27 c-6 -2 -9 -9 -6 -15 4 -6 1 -8 -7 -6 -8 3 -31 -3 -51
-14 -21 -10 -38 -16 -38 -13 0 6 93 54 105 54 6 0 4 -3 -3 -6z m1113 -5 c14
-6 25 -15 25 -20 0 -8 -17 -1 -50 22 -20 13 -7 13 25 -2z m-495 -18 c0 -5 -2
-10 -4 -10 -3 0 -8 5 -11 10 -3 6 -1 10 4 10 6 0 11 -4 11 -10z m626 -57 c-2
-2 -17 3 -35 10 -17 7 -28 16 -25 20 4 4 20 -1 35 -10 16 -9 27 -18 25 -20z
m-1386 5 c-19 -12 -37 -25 -40 -28 -3 -4 -20 -13 -37 -21 -18 -8 -33 -17 -33
-20 0 -4 -10 -9 -21 -12 -33 -9 -11 9 72 57 76 45 122 63 59 24z m710 12 c0
-5 -7 -10 -16 -10 -8 0 -12 5 -9 10 3 6 10 10 16 10 5 0 9 -4 9 -10z m35 -8
c-3 -3 -11 0 -18 7 -9 10 -8 11 6 5 10 -3 15 -9 12 -12z m-145 -11 c0 -6 -4
-13 -10 -16 -5 -3 -10 1 -10 9 0 9 5 16 10 16 6 0 10 -4 10 -9z m81 -8 c12
-15 12 -16 -3 -11 -24 9 -30 -2 -11 -21 12 -11 17 -13 21 -3 2 6 17 12 34 12
42 0 31 -23 -15 -31 -20 -3 -43 -11 -51 -19 -9 -7 -16 -9 -17 -4 0 5 -2 20 -5
33 -2 14 3 32 12 43 21 22 18 22 35 1z m94 -14 c4 -6 4 -26 0 -46 -5 -26 -9
-33 -18 -24 -15 15 -60 14 -75 -1 -6 -6 -15 -8 -19 -4 -11 10 18 26 49 26 35
0 63 27 47 46 -8 9 -8 14 -1 14 6 0 14 -5 17 -11z m676 -5 c17 -8 29 -17 27
-20 -5 -4 -68 25 -68 32 0 7 10 4 41 -12z m-1040 -37 c-10 -9 -11 -8 -5 6 3
10 9 15 12 12 3 -3 0 -11 -7 -18z m1110 -20 c-13 -13 -26 -3 -16 12 3 6 11 8
17 5 6 -4 6 -10 -1 -17z m-1321 8 c0 -2 -13 -11 -30 -20 -16 -9 -30 -12 -30
-7 0 4 12 13 28 19 15 6 28 11 30 12 1 1 2 -1 2 -4z m65 -5 c-3 -5 -14 -10
-23 -9 -14 0 -13 2 3 9 27 11 27 11 20 0z m84 -30 c-35 -61 -82 -102 -120
-103 -29 -2 -34 1 -31 18 6 36 37 70 92 98 76 38 86 36 59 -13z m251 15 c0 -8
-4 -15 -10 -15 -5 0 -10 7 -10 15 0 8 5 15 10 15 6 0 10 -7 10 -15z m976 -13
c-4 -3 -14 2 -24 12 -16 18 -16 18 6 6 13 -6 21 -14 18 -18z m-1750 6 c4 -6 3
-8 -3 -5 -6 4 -25 -6 -42 -23 -18 -16 -34 -29 -36 -29 -3 -1 -9 -1 -15 -1 -5
0 -10 -7 -10 -16 0 -8 -5 -12 -10 -9 -6 4 -19 1 -28 -6 -14 -11 -15 -11 -5 0
9 11 133 99 140 101 1 0 5 -5 9 -12z m577 -9 c5 -3 -2 -8 -16 -11 -22 -4 -24
-3 -14 13 6 10 14 15 17 11 3 -4 9 -10 13 -13z m337 6 c0 -9 -9 -15 -25 -15
-16 0 -25 6 -25 15 0 9 9 15 25 15 16 0 25 -6 25 -15z m524 -10 c20 -8 36 -17
36 -19 0 -8 -63 13 -74 24 -14 14 -5 13 38 -5z m-1095 -59 c-12 -31 -35 -68
-51 -81 -35 -30 -78 -34 -78 -7 0 23 37 83 63 102 27 20 81 49 85 46 1 -2 -7
-29 -19 -60z m324 57 c-7 -2 -19 -2 -25 0 -7 3 -2 5 12 5 14 0 19 -2 13 -5z
m735 -26 c18 -22 4 -45 -34 -57 -19 -6 -34 -14 -34 -17 0 -3 9 -17 20 -33 16
-23 17 -30 6 -45 -9 -13 -20 -16 -40 -11 -32 8 -44 32 -28 57 16 25 17 24 -20
24 -29 0 -33 4 -36 28 -3 21 2 29 20 36 13 4 29 6 35 4 7 -3 16 3 19 12 14 36
64 37 92 2z m-98 19 c0 -3 -4 -8 -10 -11 -5 -3 -10 -1 -10 4 0 6 5 11 10 11 6
0 10 -2 10 -4z m533 -31 c42 -29 51 -46 10 -20 -55 36 -67 45 -58 45 6 0 27
-11 48 -25z m-1596 -9 c-13 -14 -16 -14 -21 0 -3 8 -2 12 3 9 5 -3 13 0 16 6
4 5 9 8 12 5 3 -3 -1 -12 -10 -20z m429 13 c3 -6 -8 -25 -25 -43 -29 -28 -37
-31 -95 -31 -36 0 -68 3 -72 7 -9 10 14 37 51 60 34 20 129 25 141 7z m274 -9
c0 -5 -4 -10 -10 -10 -5 0 -10 5 -10 10 0 6 5 10 10 10 6 0 10 -4 10 -10z
m550 -3 c0 -8 -7 -14 -15 -14 -25 0 -17 17 13 26 1 1 2 -5 2 -12z m-1300 -2
c0 -2 -10 -9 -22 -15 -22 -11 -22 -10 -4 4 21 17 26 19 26 11z m475 -43 l-38
-37 34 42 c19 23 36 39 38 37 3 -3 -12 -21 -34 -42z m855 44 c0 -3 -4 -8 -10
-11 -5 -3 -10 -1 -10 4 0 6 5 11 10 11 6 0 10 -2 10 -4z m-310 -61 c0 -5 -5
-3 -10 5 -5 8 -10 20 -10 25 0 6 5 3 10 -5 5 -8 10 -19 10 -25z m715 5 c4 -6
-5 -5 -19 2 -14 6 -26 15 -26 20 0 10 36 -7 45 -22z m-1742 -12 c-16 -84 -29
-113 -62 -135 -19 -13 -40 -23 -47 -23 -19 0 -18 44 2 83 15 30 90 106 106
107 4 0 5 -15 1 -32z m-393 -3 c-7 -8 -17 -15 -23 -15 -6 0 -2 7 9 15 25 19
30 19 14 0z m1840 11 c0 -2 -8 -10 -17 -17 -16 -13 -17 -12 -4 4 13 16 21 21
21 13z m330 -21 c11 -13 10 -14 -4 -9 -9 3 -16 10 -16 15 0 13 6 11 20 -6z
m-1064 -20 c1 -8 -2 -15 -7 -15 -5 0 -9 10 -9 22 0 23 12 17 16 -7z m354 15
c13 -8 13 -10 -2 -10 -9 0 -20 5 -23 10 -8 13 5 13 25 0z m340 0 c0 -5 -5 -10
-11 -10 -5 0 -7 5 -4 10 3 6 8 10 11 10 2 0 4 -4 4 -10z m-1590 -50 c-57 -51
-64 -44 -8 8 23 22 45 38 48 36 2 -3 -16 -22 -40 -44z m500 30 c21 -12 -84
-60 -130 -60 -90 0 -105 27 -32 58 47 21 125 22 162 2z m68 0 c-7 -10 -14 -18
-15 -16 -6 6 9 36 18 36 5 0 4 -9 -3 -20z m1117 -36 c0 -24 -5 -29 -33 -35
-43 -9 -46 -13 -34 -48 9 -24 7 -32 -7 -45 -17 -15 -20 -15 -44 5 -32 25 -33
34 -7 57 21 17 21 17 -6 22 -15 3 -32 13 -38 23 -9 15 -7 22 11 37 13 10 31
16 41 13 9 -2 31 3 47 11 39 20 70 2 70 -40z m25 36 c6 -11 8 -20 6 -20 -3 0
-10 9 -16 20 -6 11 -8 20 -6 20 3 0 10 -9 16 -20z m293 -24 c-5 -7 -9 -5 -11
7 -2 9 -8 14 -14 11 -7 -4 -8 -2 -4 5 6 9 11 9 22 0 7 -6 11 -16 7 -23z
m-1940 9 c-3 -9 -8 -14 -10 -11 -3 3 -2 9 2 15 9 16 15 13 8 -4z m-358 -15
c-10 -11 -21 -18 -23 -15 -3 3 3 12 14 20 27 20 30 18 9 -5z m828 5 c-3 -9 -8
-14 -10 -11 -3 3 -2 9 2 15 9 16 15 13 8 -4z m317 -45 c0 -27 -4 -50 -9 -50
-5 0 -7 21 -5 48 4 57 3 52 9 52 3 0 5 -22 5 -50z m-826 -31 c-6 -51 -13 -69
-35 -91 -80 -80 -79 34 1 126 18 20 35 35 37 32 2 -2 1 -32 -3 -67z m1257 54
c13 -16 12 -17 -3 -4 -17 13 -22 21 -14 21 2 0 10 -8 17 -17z m775 -4 c19 -21
19 -21 -8 -8 -15 6 -25 16 -22 20 7 12 8 12 30 -12z m-1547 -12 c0 -9 -2 -9
-6 0 -3 10 -10 10 -26 2 -21 -10 -21 -9 -3 5 20 16 37 13 35 -7z m-839 10 c0
-2 -10 -12 -22 -23 l-23 -19 19 23 c18 21 26 27 26 19z m1232 -45 c1 -24 5
-39 11 -35 6 3 7 1 3 -5 -16 -26 -26 -9 -26 40 0 60 9 60 12 0z m527 14 c-3
-3 -11 5 -18 17 -13 21 -12 21 5 5 10 -10 16 -20 13 -22z m-1074 3 l40 -12
-45 -20 c-52 -23 -123 -32 -175 -23 -31 6 -34 9 -25 26 26 49 99 59 205 29z
m1005 11 c0 -5 -4 -10 -9 -10 -6 0 -13 5 -16 10 -3 6 1 10 9 10 9 0 16 -4 16
-10z m-1423 -22 c-3 -8 -6 -5 -6 6 -1 11 2 17 5 13 3 -3 4 -12 1 -19z m1543
12 c-8 -5 -19 -10 -25 -10 -5 0 -3 5 5 10 8 5 20 10 25 10 6 0 3 -5 -5 -10z
m629 -29 c-2 -6 -10 2 -17 17 -11 25 -11 25 4 10 9 -9 15 -21 13 -27z m-283
17 c4 -6 2 -8 -4 -4 -5 3 -12 1 -14 -5 -2 -7 -8 -7 -15 3 -10 11 -8 14 7 15
11 1 23 -3 26 -9z m-2206 -1 c0 -2 -15 -16 -32 -33 l-33 -29 29 33 c28 30 36
37 36 29z m1904 -5 c2 -4 -5 -9 -17 -9 -17 -2 -19 0 -7 7 18 12 18 12 24 2z
m627 -29 c13 -16 12 -17 -3 -4 -17 13 -22 21 -14 21 2 0 10 -8 17 -17z m-901
-3 c0 -5 -4 -10 -10 -10 -5 0 -10 5 -10 10 0 6 5 10 10 10 6 0 10 -4 10 -10z
m565 -25 c1 -27 -10 -33 -18 -10 -4 8 -2 17 4 20 5 4 6 12 3 18 -4 7 -3 9 1 4
5 -4 9 -18 10 -32z m-1760 15 c3 -5 1 -10 -4 -10 -6 0 -11 5 -11 10 0 6 2 10
4 10 3 0 8 -4 11 -10z m408 3 c-7 -2 -19 -2 -25 0 -7 3 -2 5 12 5 14 0 19 -2
13 -5z m47 -3 c0 -5 -7 -7 -15 -4 -8 4 -15 8 -15 10 0 2 7 4 15 4 8 0 15 -4
15 -10z m335 0 c3 -5 -1 -10 -10 -10 -9 0 -13 5 -10 10 3 6 8 10 10 10 2 0 7
-4 10 -10z m-993 -32 c-7 -7 -12 -8 -12 -2 0 14 12 26 19 19 2 -3 -1 -11 -7
-17z m57 -70 c1 -45 -13 -80 -41 -97 -48 -30 -52 59 -6 139 l32 55 7 -30 c4
-16 7 -47 8 -67z m1441 76 c0 -2 -15 -4 -32 -4 -23 0 -29 3 -19 9 12 8 51 4
51 -5z m190 1 c7 -9 8 -15 2 -15 -5 0 -12 7 -16 15 -3 8 -4 15 -2 15 2 0 9 -7
16 -15z m655 -5 c10 -11 16 -20 13 -20 -3 0 -13 9 -23 20 -10 11 -16 20 -13
20 3 0 13 -9 23 -20z m-2670 -10 c-14 -16 -16 -23 -7 -32 20 -20 13 -29 -6
-10 -18 17 -18 18 1 40 11 12 23 22 25 22 3 0 -3 -9 -13 -20z m885 16 c0 -2
-7 -7 -16 -10 -8 -3 -12 -2 -9 4 6 10 25 14 25 6z m1467 -2 c-3 -3 -12 -4 -19
-1 -8 3 -5 6 6 6 11 1 17 -2 13 -5z m-1662 -13 l30 -6 -35 -22 c-57 -35 -92
-45 -154 -44 -33 1 -62 3 -65 6 -2 3 11 21 29 40 32 33 37 35 99 34 37 -1 80
-4 96 -8z m150 -19 c-7 -8 -35 7 -35 18 0 6 7 6 20 -2 10 -7 17 -14 15 -16z
m115 -87 c0 -70 -4 -115 -10 -115 -6 0 -10 45 -10 115 0 70 4 115 10 115 6 0
10 -45 10 -115z m306 89 c-21 -20 -28 -17 -14 5 7 11 16 17 20 15 5 -3 2 -12
-6 -20z m184 -6 l23 -33 -26 24 c-15 14 -27 28 -27 33 0 14 5 9 30 -24z m257
-45 c-2 -16 -4 -3 -4 27 0 30 2 43 4 28 2 -16 2 -40 0 -55z m43 -37 c0 -66 -4
-117 -10 -121 -6 -4 -10 37 -10 114 0 74 4 121 10 121 6 0 10 -45 10 -114z
m105 93 c11 -17 -1 -21 -15 -4 -8 9 -8 15 -2 15 6 0 14 -5 17 -11z m-1545 -19
c-6 -11 -13 -20 -16 -20 -2 0 0 9 6 20 6 11 13 20 16 20 2 0 0 -9 -6 -20z
m610 9 c0 -5 -9 -9 -19 -9 -11 0 -29 -12 -40 -27 -15 -20 -19 -22 -15 -8 4 11
13 27 20 35 15 17 54 24 54 9z m903 -7 c8 -7 17 -23 20 -35 5 -19 4 -19 -14 6
-12 15 -29 27 -40 27 -10 0 -19 4 -19 10 0 13 34 8 53 -8z m557 -2 c20 -37 4
-60 -42 -60 l-40 0 6 -34 c8 -42 -12 -63 -43 -46 -27 14 -27 45 1 64 22 16 22
16 1 16 -11 0 -26 7 -34 16 -21 26 1 49 49 49 23 1 44 4 48 8 14 14 43 7 54
-13z m-292 -15 c-3 -3 -9 2 -12 12 -6 14 -5 15 5 6 7 -7 10 -15 7 -18z m62 4
c0 -6 -4 -7 -10 -4 -5 3 -10 11 -10 16 0 6 5 7 10 4 6 -3 10 -11 10 -16z m590
-11 l23 -33 -31 29 c-34 31 -37 36 -24 36 5 0 19 -15 32 -32z m-2020 2 c-6
-11 -16 -17 -22 -14 -7 5 -5 12 7 21 25 18 28 17 15 -7z m1705 10 c3 -5 1 -10
-4 -10 -6 0 -11 5 -11 10 0 6 2 10 4 10 3 0 8 -4 11 -10z m-1614 -23 c-10 -9
-11 -8 -5 6 3 10 9 15 12 12 3 -3 0 -11 -7 -18z m1084 -6 c-6 -5 -25 10 -25
20 0 5 6 4 14 -3 8 -7 12 -15 11 -17z m-1939 7 c4 -7 3 -10 -1 -5 -5 4 -29
-12 -54 -35 l-46 -43 45 48 c24 26 45 47 46 47 2 0 6 -6 10 -12z m1257 5 c-7
-2 -19 -2 -25 0 -7 3 -2 5 12 5 14 0 19 -2 13 -5z m294 1 c-3 -3 -12 -4 -19
-1 -8 3 -5 6 6 6 11 1 17 -2 13 -5z m-1220 -36 c-3 -7 -5 -2 -5 12 0 14 2 19
5 13 2 -7 2 -19 0 -25z m1913 23 c0 -6 -4 -13 -10 -16 -5 -3 -10 1 -10 9 0 9
5 16 10 16 6 0 10 -4 10 -9z m-1290 -6 c0 -2 -19 -14 -42 -26 -43 -21 -40 -8
4 16 25 14 38 18 38 10z m263 -15 c3 -11 1 -18 -4 -14 -5 3 -9 12 -9 20 0 20
7 17 13 -6z m677 -18 c8 -8 -4 -5 -27 7 -24 12 -43 23 -43 26 0 8 54 -18 70
-33z m-1615 9 c-3 -6 -11 -8 -17 -5 -6 4 -5 9 3 15 16 10 23 4 14 -10z m555 9
c0 -5 -4 -10 -10 -10 -5 0 -10 5 -10 10 0 6 5 10 10 10 6 0 10 -4 10 -10z
m-189 -13 c-18 -23 -113 -65 -162 -72 -62 -9 -70 6 -26 50 34 34 37 35 117 35
67 0 80 -2 71 -13z m319 -19 c-1 -28 -2 -30 -11 -15 -6 10 -8 25 -5 33 9 24
16 16 16 -18z m862 -10 c-10 -22 -11 -21 -11 12 -1 26 2 31 11 22 8 -8 8 -17
0 -34z m441 17 c-7 -21 -12 -19 -10 4 0 11 5 18 9 15 4 -3 5 -11 1 -19z m246
3 l14 -23 -24 20 c-13 11 -26 21 -28 22 -2 2 2 3 10 3 8 0 20 -10 28 -22z
m-2184 -62 c17 -62 17 -66 -1 -97 -11 -18 -24 -34 -30 -36 -14 -5 -34 40 -34
76 0 33 29 121 40 121 4 0 16 -29 25 -64z m353 52 c-3 -7 -10 -14 -16 -14 -7
-1 -16 -2 -21 -3 -5 0 -11 -9 -13 -18 -3 -13 -6 -15 -11 -6 -5 8 4 20 25 33
39 23 41 24 36 8z m132 3 c0 -5 -8 -19 -18 -31 -18 -22 -18 -22 -19 -1 -1 12
4 21 13 21 8 0 14 5 14 10 0 6 2 10 5 10 3 0 5 -4 5 -9z m2080 -52 c29 -35 47
-65 43 -72 -5 -8 -9 -5 -13 9 -7 30 -81 115 -93 107 -6 -3 -7 -1 -3 5 4 7 9
12 11 12 2 0 27 -27 55 -61z m-2031 6 c9 -12 10 -15 1 -7 -24 20 -32 14 -28
-23 3 -30 1 -34 -17 -31 -24 4 -33 34 -11 42 8 3 18 20 22 37 4 19 9 26 12 17
2 -8 12 -24 21 -35z m400 23 c0 -16 -2 -18 -6 -8 -3 8 -11 18 -17 22 -7 5 -4
8 7 8 11 0 17 -7 16 -22z m265 7 c-4 -8 -8 -15 -10 -15 -2 0 -4 7 -4 15 0 8 4
15 10 15 5 0 7 -7 4 -15z m442 -48 c22 -13 16 -34 -11 -39 -19 -4 -23 -2 -16
10 9 16 3 52 -8 52 -4 0 -13 -6 -21 -12 -8 -7 -7 -4 3 8 9 11 17 27 18 35 0 8
5 1 11 -16 6 -16 17 -34 24 -38z m-486 43 c0 -6 -38 -10 -95 -10 -57 0 -95 4
-95 10 0 6 38 10 95 10 57 0 95 -4 95 -10z m-1232 -26 c-7 -15 -14 -21 -16
-15 -2 7 2 18 8 26 18 22 21 18 8 -11z m1499 -6 c-3 -7 -5 -2 -5 12 0 14 2 19
5 13 2 -7 2 -19 0 -25z m-1862 12 c-3 -5 -1 -10 6 -10 7 0 10 -3 6 -6 -9 -9
-28 6 -22 17 4 5 8 9 11 9 3 0 2 -4 -1 -10z m2379 -5 c3 -8 1 -15 -4 -15 -6 0
-10 7 -10 15 0 8 2 15 4 15 2 0 6 -7 10 -15z m-904 -10 c0 -8 -9 -15 -20 -15
-11 0 -20 7 -20 15 0 8 9 15 20 15 11 0 20 -7 20 -15z m98 -2 c2 -8 -6 -13
-22 -13 -17 0 -26 5 -26 16 0 19 41 16 48 -3z m1053 -6 c-10 -9 -11 -8 -5 6 3
10 9 15 12 12 3 -3 0 -11 -7 -18z m-1221 3 c0 -5 -4 -10 -10 -10 -5 0 -10 5
-10 10 0 6 5 10 10 10 6 0 10 -4 10 -10z m730 -22 c0 -5 -4 -8 -10 -8 -5 0
-10 10 -10 23 0 18 2 19 10 7 5 -8 10 -18 10 -22z m-1250 6 c0 -8 -5 -12 -10
-9 -6 4 -8 11 -5 16 9 14 15 11 15 -7z m-30 2 c0 -3 -4 -8 -10 -11 -5 -3 -10
-1 -10 4 0 6 5 11 10 11 6 0 10 -2 10 -4z m145 -7 c-7 -11 -35 -12 -35 -1 0 4
9 8 20 9 11 1 18 -2 15 -8z m142 -21 c-3 -7 -5 -2 -5 12 0 14 2 19 5 13 2 -7
2 -19 0 -25z m893 20 c0 -11 -28 -10 -35 1 -3 6 4 9 15 8 11 -1 20 -5 20 -9z
m384 6 c15 -6 11 -34 -6 -34 -5 0 -6 5 -2 11 3 6 0 15 -7 20 -16 10 -8 12 15
3z m-2444 -15 c0 -5 -4 -8 -9 -5 -5 3 -12 -1 -15 -10 -4 -9 -9 -14 -13 -11 -7
8 15 37 28 37 5 0 9 -5 9 -11z m696 2 c-23 -37 -195 -116 -213 -97 -7 6 23 60
42 76 27 22 183 41 171 21z m404 -6 c0 -10 -10 -14 -35 -13 -19 1 -35 5 -35
11 0 5 11 6 24 3 14 -3 28 -2 31 4 9 14 15 12 15 -5z m893 1 c8 3 17 2 20 -3
3 -5 -10 -9 -29 -9 -23 0 -34 4 -34 14 0 11 3 12 14 3 7 -6 20 -9 29 -5z
m-573 -16 c-8 -5 -17 -7 -19 -4 -3 3 1 9 9 14 8 5 17 7 19 4 3 -3 -1 -9 -9
-14z m73 13 c-7 -2 -19 -2 -25 0 -7 3 -2 5 12 5 14 0 19 -2 13 -5z m100 0 c-7
-2 -21 -2 -30 0 -10 3 -4 5 12 5 17 0 24 -2 18 -5z m1072 -3 c13 -6 15 -9 5
-9 -8 0 -22 4 -30 9 -18 12 -2 12 25 0z m-1007 -7 c-4 -19 15 -41 30 -36 15 4
15 3 2 -6 -11 -8 -18 -6 -28 7 -7 9 -20 23 -29 30 -15 11 -15 12 5 12 12 0 21
-3 20 -7z m1092 3 c0 -2 -7 -7 -16 -10 -8 -3 -12 -2 -9 4 6 10 25 14 25 6z
m-863 -28 c-3 -8 -6 -5 -6 6 -1 11 2 17 5 13 3 -3 4 -12 1 -19z m305 2 c3 -3
0 -14 -8 -24 -13 -19 -14 -18 -14 14 0 18 3 29 8 24 4 -5 10 -11 14 -14z m443
10 c3 -5 23 -10 44 -10 30 0 40 -4 44 -20 3 -11 -2 -29 -11 -40 -14 -17 -22
-19 -50 -11 -30 9 -34 8 -42 -15 -6 -14 -10 -29 -10 -34 0 -14 -32 -21 -47 -9
-20 17 -12 51 14 64 21 11 21 11 2 23 -10 7 -19 19 -19 27 0 27 61 47 75 25z
m-1497 -15 c3 -3 -47 -5 -111 -5 -64 0 -117 3 -117 8 0 8 219 6 228 -3z m1002
3 c0 -5 -53 -8 -117 -8 -65 0 -113 4 -106 8 15 9 223 9 223 0z m395 -8 c-3 -5
2 -16 11 -24 8 -9 12 -16 7 -16 -14 0 -44 40 -38 51 4 5 11 7 16 3 5 -3 7 -9
4 -14z m-2575 6 c0 -3 -4 -8 -10 -11 -5 -3 -10 -1 -10 4 0 6 5 11 10 11 6 0
10 -2 10 -4z m362 -46 c-10 -27 -19 -42 -20 -34 -2 8 0 23 4 32 4 9 8 19 8 22
2 8 17 30 21 30 2 0 -4 -22 -13 -50z m73 -38 c15 -60 15 -66 -2 -100 -24 -47
-38 -50 -52 -11 -16 45 -14 97 5 154 19 55 24 50 49 -43z m485 67 c0 -11 -4
-18 -10 -14 -5 3 -7 12 -3 20 7 21 13 19 13 -6z m510 11 c0 -5 -5 -10 -11 -10
-5 0 -7 5 -4 10 3 6 8 10 11 10 2 0 4 -4 4 -10z m-725 -20 c-3 -5 -13 -10 -21
-10 -8 0 -12 5 -9 10 3 6 13 10 21 10 8 0 12 -4 9 -10z m1222 -72 c-2 -18 -4
-6 -4 27 0 33 2 48 4 33 2 -15 2 -42 0 -60z m-1960 47 c-7 -13 -14 -20 -15
-14 -2 5 2 16 8 24 18 21 20 18 7 -10z m1171 18 c-27 -2 -69 -2 -95 0 -27 2
-5 3 47 3 52 0 74 -1 48 -3z m82 -25 c0 -12 -3 -18 -7 -14 -10 10 -11 46 -1
40 4 -3 8 -15 8 -26z m190 29 c0 -2 -19 -21 -42 -42 l-43 -40 40 43 c36 39 45
47 45 39z m688 -4 c-26 -2 -71 -2 -100 0 -29 2 -8 3 47 3 55 0 79 -1 53 -3z
m185 -25 c6 -22 5 -22 -8 -4 -17 22 -20 40 -6 32 5 -3 11 -16 14 -28z m514 17
c0 -8 -4 -12 -9 -9 -5 3 -6 10 -3 15 9 13 12 11 12 -6z m-1934 -10 c-3 -9 -8
-14 -10 -11 -3 3 -2 9 2 15 9 16 15 13 8 -4z m888 -2 c13 -16 12 -17 -3 -4
-17 13 -22 21 -14 21 2 0 10 -8 17 -17z m-791 -25 c0 -4 -7 -8 -15 -8 -9 0
-19 -10 -24 -22 -8 -21 -8 -21 -14 4 -4 14 -10 33 -13 41 -5 13 -1 14 30 5 20
-6 36 -15 36 -20z m1270 7 c-10 -13 -9 -15 9 -15 12 0 20 -4 16 -10 -3 -5 -12
-7 -20 -3 -10 3 -15 -1 -16 -13 0 -16 -2 -15 -9 4 -5 12 -16 22 -25 22 -27 0
-16 17 18 27 38 11 44 9 27 -12z m-1586 -16 c-51 -55 -105 -89 -141 -89 -42 0
-45 27 -5 70 26 29 65 41 161 49 9 1 3 -11 -15 -30z m49 6 c-10 -13 -22 -25
-27 -25 -5 0 1 11 14 25 30 32 36 32 13 0z m2131 9 c3 -8 2 -12 -4 -9 -6 3
-10 10 -10 16 0 14 7 11 14 -7z m-2351 -19 c-3 -9 -8 -14 -10 -11 -3 3 -2 9 2
15 9 16 15 13 8 -4z m1322 -5 c10 -11 16 -20 13 -20 -3 0 -13 9 -23 20 -10 11
-16 20 -13 20 3 0 13 -9 23 -20z m-1456 -20 c11 -24 11 -24 -3 -6 -9 11 -16
24 -16 30 0 12 5 7 19 -24z m718 -17 c-3 -10 -5 -2 -5 17 0 19 2 27 5 18 2
-10 2 -26 0 -35z m123 17 c0 -16 -4 -30 -10 -30 -5 0 -10 14 -10 30 0 17 5 30
10 30 6 0 10 -13 10 -30z m790 0 c0 -16 -4 -30 -10 -30 -5 0 -10 14 -10 30 0
17 5 30 10 30 6 0 10 -13 10 -30z m107 -17 c-3 -10 -5 -2 -5 17 0 19 2 27 5
18 2 -10 2 -26 0 -35z m-1784 7 c-7 -28 -13 -25 -13 6 0 14 4 23 9 20 5 -3 7
-15 4 -26z m712 20 c4 -7 -2 -9 -19 -4 -26 6 -31 -1 -27 -35 2 -7 -2 -10 -8
-6 -12 7 -15 38 -4 48 10 11 51 8 58 -3z m1181 -5 c4 -8 3 -23 -2 -32 -6 -15
-9 -13 -12 10 -3 25 -7 28 -29 22 -16 -4 -22 -2 -18 5 10 15 55 12 61 -5z
m614 5 c0 -5 -2 -10 -4 -10 -3 0 -8 5 -11 10 -3 6 -1 10 4 10 6 0 11 -4 11
-10z m-1660 -16 c0 -2 -14 -4 -31 -4 -16 0 -28 4 -25 9 5 8 56 3 56 -5z m907
3 c3 -4 -8 -7 -25 -7 -18 0 -32 4 -32 8 0 9 47 8 57 -1z m523 3 c0 -5 -5 -10
-11 -10 -5 0 -7 5 -4 10 3 6 8 10 11 10 2 0 4 -4 4 -10z m-1929 -22 c-4 -13
-18 -25 -31 -26 -22 -4 -22 -3 6 22 36 31 35 31 25 4z m186 0 c-3 -8 -6 -5 -6
6 -1 11 2 17 5 13 3 -3 4 -12 1 -19z m113 -49 c0 -5 -7 -9 -15 -9 -8 0 -15 7
-15 15 0 8 -12 22 -26 31 -16 11 -21 20 -14 24 12 7 70 -44 70 -61z m370 62
c0 -5 -7 -12 -16 -15 -14 -5 -15 -4 -4 9 14 17 20 19 20 6z m580 -48 c0 -7
-58 36 -66 49 -4 7 9 -1 29 -16 20 -16 37 -30 37 -33z m356 25 c-14 -11 -26
-26 -26 -34 0 -8 -7 -14 -15 -14 -22 0 -18 14 12 47 16 17 34 28 42 25 10 -4
7 -10 -13 -24z m67 5 c-7 -2 -10 -10 -7 -18 4 -10 0 -12 -16 -8 -19 5 -20 7
-6 15 9 5 16 16 16 25 0 14 2 15 13 4 9 -10 9 -15 0 -18z m-2356 -5 c-3 -8 -6
-5 -6 6 -1 11 2 17 5 13 3 -3 4 -12 1 -19z m1073 12 c0 -5 -5 -10 -11 -10 -5
0 -7 5 -4 10 3 6 8 10 11 10 2 0 4 -4 4 -10z m-664 -82 c27 -53 30 -91 10
-127 l-13 -23 -21 27 c-31 39 -44 96 -36 156 6 48 8 51 21 33 8 -10 25 -40 39
-66z m1560 52 c-1 -29 -6 -36 -19 -24 -5 5 12 54 18 54 1 0 2 -13 1 -30z m669
-6 c1 -13 -2 -24 -7 -24 -4 0 -6 13 -5 29 2 34 12 30 12 -5z m574 -26 c0 -41
-3 -56 -8 -43 -7 19 -3 105 5 105 2 0 4 -28 3 -62z m-1931 29 c13 4 12 2 -3
-10 -26 -21 -34 -21 -30 1 5 27 6 28 11 15 3 -7 13 -9 22 -6z m-1291 -29 c-3
-8 -6 -5 -6 6 -1 11 2 17 5 13 3 -3 4 -12 1 -19z m332 -20 c-1 -24 3 -54 10
-68 l12 -25 -21 25 c-16 18 -20 32 -16 53 3 16 6 36 6 43 0 8 3 14 6 14 3 0 4
-19 3 -42z m2368 20 c-3 -8 -6 -5 -6 6 -1 11 2 17 5 13 3 -3 4 -12 1 -19z
m211 -24 c2 -1 -9 -1 -24 -1 -18 0 -22 2 -13 8 8 5 11 9 7 10 -5 1 -12 3 -18
4 -5 1 -16 3 -22 4 -9 1 -9 4 2 11 10 6 22 3 40 -13 14 -12 26 -23 28 -23z
m-2258 27 c0 -24 -98 -92 -152 -105 -30 -7 -33 -1 -18 38 16 42 48 57 163 75
4 0 7 -3 7 -8z m1693 -50 c1 -74 -9 -73 -12 1 -1 35 1 60 4 56 4 -3 7 -29 8
-57z m-1673 23 c-20 -20 -22 -27 -11 -33 11 -7 10 -11 -6 -19 -12 -7 -25 -7
-34 -1 -13 8 -5 14 16 9 5 -1 7 2 2 6 -6 7 39 64 52 64 2 0 -6 -11 -19 -26z
m417 6 c136 0 143 -1 143 -20 0 -19 -7 -20 -136 -20 -74 0 -144 -5 -155 -10
-17 -10 -19 -7 -19 32 0 33 3 39 12 30 8 -8 57 -12 155 -12z m1218 -19 c0 -34
-2 -38 -17 -30 -9 5 -78 9 -152 9 -129 0 -136 1 -136 20 0 19 7 20 144 20 86
0 147 4 151 10 10 15 10 13 10 -29z m340 19 c3 -5 1 -10 -4 -10 -6 0 -11 5
-11 10 0 6 2 10 4 10 3 0 8 -4 11 -10z m201 -15 c4 -8 18 -15 34 -15 32 0 53
-21 44 -43 -9 -24 -40 -30 -80 -15 -33 12 -37 11 -52 -9 -25 -32 -72 -35 -72
-4 0 28 26 44 57 37 l28 -7 -24 19 c-34 27 -22 52 24 52 22 0 38 -6 41 -15z
m-1950 -32 c-11 -11 -17 4 -9 23 7 18 8 18 11 1 2 -10 1 -21 -2 -24z m1840 0
c-11 -11 -19 6 -11 24 8 17 8 17 12 0 3 -10 2 -21 -1 -24z m219 26 c12 -19 -5
-23 -22 -6 -16 16 -16 17 -1 17 9 0 20 -5 23 -11z m-2948 -91 c-2 -13 -4 -5
-4 17 -1 22 1 32 4 23 2 -10 2 -28 0 -40z m884 35 c11 -15 11 -16 -1 -6 -10 9
-17 10 -27 2 -9 -8 -13 -8 -13 -1 0 6 6 13 13 15 6 3 13 6 13 6 1 1 8 -7 15
-16z m1806 -2 c-3 -11 2 -29 9 -40 9 -13 11 -22 4 -26 -6 -4 -9 -3 -8 2 1 4
-3 18 -10 30 -6 12 -9 29 -6 37 9 23 17 20 11 -3z m517 -25 c-3 -21 -9 -35
-11 -32 -3 3 -2 21 1 42 4 20 10 34 12 31 3 -3 2 -21 -2 -41z m-2469 24 c10
-16 -16 -43 -28 -31 -11 11 -2 41 12 41 5 0 13 -5 16 -10z m35 -5 c0 -8 -2
-15 -4 -15 -2 0 -6 7 -10 15 -3 8 -1 15 4 15 6 0 10 -7 10 -15z m180 1 c0 -23
-21 -30 -38 -12 -9 9 -11 16 -5 16 6 0 14 -6 16 -12 3 -8 6 -6 6 5 1 20 21 23
21 3z m1567 -2 c9 -23 -11 -38 -26 -20 -13 16 -7 36 10 36 5 0 12 -7 16 -16z
m39 -11 c-10 -10 -19 5 -10 18 6 11 8 11 12 0 2 -7 1 -15 -2 -18z m390 7 c0
-12 -4 -16 -9 -11 -5 5 -6 14 -3 20 10 15 12 14 12 -9z m-2266 0 c0 -5 -5 -10
-11 -10 -5 0 -7 5 -4 10 3 6 8 10 11 10 2 0 4 -4 4 -10z m692 -37 c27 -14 60
-41 74 -60 28 -37 68 -122 61 -129 -7 -7 -47 47 -47 63 0 25 -23 8 -45 -33
l-20 -39 -28 31 c-15 18 -27 39 -27 47 0 27 -17 28 -34 3 -30 -47 -37 -110
-22 -186 20 -94 58 -161 128 -225 32 -28 58 -56 58 -62 0 -5 21 -28 46 -52 34
-31 47 -51 50 -79 4 -30 3 -34 -6 -19 -7 11 -18 16 -29 12 -11 -3 -29 7 -51
30 -33 34 -34 34 -44 13 -18 -35 -29 -30 -66 28 -19 31 -56 72 -82 92 l-48 36
0 287 0 287 42 -10 c23 -5 64 -21 90 -35z m598 -243 l0 -289 -38 -31 c-21 -17
-52 -48 -68 -70 -16 -22 -37 -40 -46 -40 -9 0 -20 -9 -23 -20 -9 -27 -33 -25
-47 5 l-11 24 -50 -44 c-28 -24 -53 -43 -55 -41 -7 8 16 71 26 69 6 -2 14 7
18 19 3 12 19 32 35 46 16 13 29 30 29 37 0 8 14 22 31 32 40 24 107 114 132
177 28 71 28 178 1 230 -22 43 -51 63 -40 28 5 -15 -2 -29 -23 -51 l-30 -31
-16 35 c-22 45 -45 65 -45 39 0 -21 -49 -87 -50 -67 -1 45 71 147 127 180 39
23 103 48 136 52 4 1 7 -129 7 -289z m320 275 c-7 -8 -16 -15 -21 -15 -5 0 -9
7 -9 15 0 9 9 15 21 15 18 0 19 -2 9 -15z m-1951 -34 c41 -52 60 -100 54 -134
-7 -38 -17 -41 -46 -11 -29 28 -42 64 -52 137 -8 58 3 60 44 8z m219 2 c-15
-58 -56 -122 -91 -144 -18 -10 -35 -19 -39 -19 -12 0 -9 56 4 85 11 24 113
115 130 115 3 0 2 -17 -4 -37z m1826 21 c3 -8 2 -12 -4 -9 -6 3 -10 10 -10 16
0 14 7 11 14 -7z m-1884 3 c0 -2 -13 -13 -29 -25 -28 -20 -29 -20 -24 -2 3 11
8 18 12 16 4 -3 13 -1 21 5 16 9 20 11 20 6z m470 -7 c0 -5 -5 -10 -11 -10 -5
0 -7 5 -4 10 3 6 8 10 11 10 2 0 4 -4 4 -10z m-168 -42 c-6 -6 -9 0 -9 18 0
23 1 24 9 10 7 -12 7 -21 0 -28z m113 18 c6 -7 16 -11 24 -8 10 3 12 0 8 -12
-5 -12 -1 -16 16 -17 l22 0 -21 -9 c-30 -12 -37 -26 -24 -50 9 -17 19 -20 48
-18 37 3 37 3 38 50 0 27 4 48 7 48 4 0 12 0 17 0 6 0 10 -20 10 -45 l0 -45
64 0 65 0 3 47 c5 71 28 68 28 -4 l0 -58 -138 0 c-129 0 -139 1 -162 23 -21
20 -23 25 -12 43 18 29 7 36 -19 13 -22 -19 -22 -19 -11 2 9 17 8 25 -3 34 -8
7 -15 17 -15 22 0 12 42 0 55 -16z m1435 15 c0 -5 -7 -14 -15 -21 -11 -9 -12
-17 -3 -34 11 -21 11 -21 -11 -2 -26 23 -37 16 -19 -13 11 -18 9 -23 -12 -43
-22 -21 -34 -23 -145 -24 -160 -1 -155 -3 -155 63 0 33 4 52 10 48 6 -3 10
-26 10 -51 l0 -44 70 0 c69 0 70 0 71 28 1 15 1 35 0 45 -1 9 3 17 8 17 6 0
14 0 19 0 4 0 7 -22 7 -48 0 -45 1 -47 31 -50 33 -3 68 21 61 42 -2 6 -14 17
-28 23 -24 13 -24 13 -2 13 17 0 21 4 16 17 -5 12 -2 15 10 10 9 -3 17 -2 17
4 0 5 10 14 23 19 29 12 37 12 37 1z m-1750 -34 c0 -5 -4 -5 -10 -2 -5 3 -10
14 -10 23 0 15 2 15 10 2 5 -8 10 -19 10 -23z m175 23 c2 -3 -25 -6 -60 -6
-35 1 -61 4 -59 7 5 8 114 8 119 -1z m1790 1 c2 -4 -25 -7 -60 -7 -35 0 -62 3
-60 7 3 3 29 6 60 6 31 0 57 -3 60 -6z m-1927 -26 c-3 -3 -9 2 -12 12 -6 14
-5 15 5 6 7 -7 10 -15 7 -18z m362 9 c0 -14 -3 -14 -15 -4 -8 7 -15 14 -15 16
0 2 7 4 15 4 8 0 15 -7 15 -16z m1240 12 c0 -2 -7 -9 -15 -16 -12 -10 -15 -10
-15 4 0 9 7 16 15 16 8 0 15 -2 15 -4z m182 -10 c7 4 8 2 4 -5 -9 -13 -26 -5
-25 12 0 9 2 8 6 -1 2 -6 10 -9 15 -6z m511 -13 c-5 -12 -7 -12 -14 -1 -13 20
-11 28 5 22 8 -3 12 -12 9 -21z m-2081 -13 c-3 -29 22 -68 51 -80 20 -9 19
-10 -8 -7 -20 1 -32 8 -35 22 -3 11 -15 21 -27 23 -30 4 -39 32 -12 39 12 4
18 11 15 20 -4 9 -1 13 6 10 7 -2 12 -15 10 -27z m1522 15 c-4 -9 0 -15 10
-15 9 0 16 -8 16 -20 0 -14 -7 -20 -21 -20 -12 0 -23 -8 -26 -19 -5 -19 -49
-38 -61 -26 -3 3 2 5 11 5 24 0 59 50 53 76 -6 21 0 34 15 34 5 0 6 -7 3 -15z
m-1679 -4 c11 -5 28 -4 39 1 13 7 22 6 33 -4 12 -13 11 -20 -9 -54 -18 -31
-29 -39 -52 -39 -24 1 -30 7 -42 40 -20 58 -12 73 31 56z m1794 0 c9 -6 24 -5
39 0 36 14 44 -1 27 -52 -13 -39 -19 -45 -43 -44 -35 0 -81 67 -62 90 14 17
20 18 39 6z m711 -1 c0 -5 -5 -10 -11 -10 -5 0 -7 5 -4 10 3 6 8 10 11 10 2 0
4 -4 4 -10z m-2030 -15 c0 -11 -12 -15 -45 -15 -57 0 -59 18 -2 23 23 2 43 4
45 5 1 1 2 -5 2 -13z m960 -6 c0 -5 -20 -9 -45 -9 -29 0 -45 4 -45 13 0 8 14
11 45 9 25 -2 45 -8 45 -13z m564 5 c3 -8 2 -12 -4 -9 -6 3 -10 10 -10 16 0
14 7 11 14 -7z m-2133 -27 c-10 -9 -11 -8 -5 6 3 10 9 15 12 12 3 -3 0 -11 -7
-18z m77 -2 c-3 -3 -9 2 -12 12 -6 14 -5 15 5 6 7 -7 10 -15 7 -18z m2553 -2
c-12 -20 -14 -14 -5 12 4 9 9 14 11 11 3 -2 0 -13 -6 -23z m-282 1 c-11 -14
-10 -18 6 -30 10 -8 15 -14 10 -14 -5 0 -17 7 -27 16 -17 16 -17 18 0 30 23
18 27 17 11 -2z m-2322 -16 c-3 -8 -6 -5 -6 6 -1 11 2 17 5 13 3 -3 4 -12 1
-19z m413 6 c0 -2 -9 -4 -20 -4 -11 0 -20 4 -20 9 0 5 9 7 20 4 11 -3 20 -7
20 -9z m1250 6 c0 -5 -10 -10 -22 -9 -22 0 -22 1 -3 9 11 5 21 9 23 9 1 1 2
-3 2 -9z m-2224 -26 c-4 -9 -9 -15 -11 -12 -3 3 -3 13 1 22 4 9 9 15 11 12 3
-3 3 -13 -1 -22z m768 11 c3 -8 1 -15 -4 -15 -6 0 -10 7 -10 15 0 8 2 15 4 15
2 0 6 -7 10 -15z m359 8 c-13 -2 -35 -2 -50 0 -16 2 -5 4 22 4 28 0 40 -2 28
-4z m960 0 c-13 -2 -35 -2 -50 0 -16 2 -5 4 22 4 28 0 40 -2 28 -4z m325 -5
c-2 -6 -10 -14 -16 -16 -7 -2 -10 2 -6 12 7 18 28 22 22 4z m332 -18 c0 -13
-6 -20 -17 -19 -11 0 -13 3 -5 6 6 2 12 11 12 19 0 8 2 14 5 14 3 0 5 -9 5
-20z m106 -5 c14 -14 31 -25 38 -25 8 0 24 -8 37 -19 19 -15 21 -21 11 -34
-22 -26 -60 -30 -89 -7 -32 25 -45 25 -68 0 -10 -11 -26 -18 -39 -15 -11 2
-24 4 -28 4 -5 1 -8 9 -8 20 0 29 26 44 62 37 31 -6 31 -6 13 14 -14 16 -15
22 -5 35 18 22 48 18 76 -10z m-2341 -52 c-16 -55 -63 -126 -95 -143 -18 -9
-20 -8 -22 17 -1 31 -1 64 1 75 1 9 124 109 128 104 2 -1 -4 -25 -12 -53z m47
32 c-2 -14 -9 -28 -15 -32 -7 -4 -8 0 -4 11 4 10 7 24 7 32 0 8 4 14 9 14 4 0
6 -11 3 -25z m-225 -68 c19 -28 26 -49 25 -78 -2 -55 -10 -64 -34 -42 -34 29
-58 93 -58 153 l0 55 20 -25 c11 -14 32 -42 47 -63z m290 51 c-3 -7 -5 -2 -5
12 0 14 2 19 5 13 2 -7 2 -19 0 -25z m1810 -30 c-2 -13 -4 -3 -4 22 0 25 2 35
4 23 2 -13 2 -33 0 -45z m117 46 c3 -8 2 -12 -4 -9 -6 3 -10 10 -10 16 0 14 7
11 14 -7z m424 -39 c-3 -3 -13 7 -23 22 l-17 28 23 -22 c12 -12 20 -25 17 -28z
m-2270 28 c-10 -2 -28 -2 -40 0 -13 2 -5 4 17 4 22 1 32 -1 23 -4z m94 -13
c12 -19 24 -20 205 -20 l193 0 0 -41 0 -40 -209 2 c-114 1 -214 -1 -220 -5 -9
-6 -11 9 -9 58 3 69 16 85 40 46z m219 2 c-102 -1 -188 1 -192 5 -5 5 78 6
184 3 l192 -5 -184 -3z m1329 8 c0 -6 -69 -9 -192 -8 l-193 2 190 6 c105 3
191 7 193 8 1 1 2 -2 2 -8z m60 -55 c0 -37 -4 -65 -10 -65 -5 0 -10 3 -10 8 0
4 -94 6 -210 4 l-210 -3 0 40 0 41 195 0 c184 0 195 1 205 20 6 11 17 20 25
20 12 0 15 -15 15 -65z m98 58 c-10 -2 -26 -2 -35 0 -10 3 -2 5 17 5 19 0 27
-2 18 -5z m649 -15 c-3 -8 -6 -5 -6 6 -1 11 2 17 5 13 3 -3 4 -12 1 -19z
m-3150 -30 c-3 -7 -5 -2 -5 12 0 14 2 19 5 13 2 -7 2 -19 0 -25z m708 22 c15
-6 9 -9 -25 -9 -34 0 -40 3 -25 9 11 5 22 9 25 9 3 0 14 -4 25 -9z m1800 0
c15 -7 9 -9 -25 -9 -33 -1 -41 2 -30 9 18 12 28 12 55 0z m-2266 -38 c0 -24
-1 -25 -9 -7 -12 28 -12 47 0 40 6 -3 10 -18 9 -33z m301 24 c0 -3 -4 -8 -10
-11 -5 -3 -10 -1 -10 4 0 6 5 11 10 11 6 0 10 -2 10 -4z m2597 -28 c-3 -7 -5
-2 -5 12 0 14 2 19 5 13 2 -7 2 -19 0 -25z m-2422 12 c4 -6 -10 -10 -35 -10
-25 0 -39 4 -35 10 3 6 19 10 35 10 16 0 32 -4 35 -10z m1800 0 c4 -6 -10 -10
-35 -10 -25 0 -39 4 -35 10 3 6 19 10 35 10 16 0 32 -4 35 -10z m442 -27 c1
-32 -1 -34 -8 -15 -7 18 -3 52 5 52 1 0 2 -17 3 -37z m-530 -5 c-3 -8 -6 -5
-6 6 -1 11 2 17 5 13 3 -3 4 -12 1 -19z m-1800 -20 c-3 -7 -5 -2 -5 12 0 14 2
19 5 13 2 -7 2 -19 0 -25z m68 22 c-3 -5 -16 -10 -28 -10 -18 0 -19 2 -7 10
20 13 43 13 35 0z m1805 0 c13 -9 13 -10 0 -10 -8 0 -22 5 -30 10 -13 9 -13
10 0 10 8 0 22 -5 30 -10z m37 -22 c-3 -7 -5 -2 -5 12 0 14 2 19 5 13 2 -7 2
-19 0 -25z m-1987 -10 c0 -6 -7 -5 -15 2 -8 7 -15 17 -15 22 0 6 7 5 15 -2 8
-7 15 -17 15 -22z m2580 17 c0 -8 -2 -15 -4 -15 -2 0 -6 7 -10 15 -3 8 -1 15
4 15 6 0 10 -7 10 -15z m-2410 1 c0 -2 -8 -10 -17 -17 -16 -13 -17 -12 -4 4
13 16 21 21 21 13z m1950 -6 c0 -5 -4 -10 -10 -10 -5 0 -10 5 -10 10 0 6 5 10
10 10 6 0 10 -4 10 -10z m-2653 -22 c-3 -8 -6 -5 -6 6 -1 11 2 17 5 13 3 -3 4
-12 1 -19z m237 6 c3 -8 2 -12 -4 -9 -6 3 -10 10 -10 16 0 14 7 11 14 -7z
m416 2 c0 -3 -4 -8 -10 -11 -5 -3 -10 -1 -10 4 0 6 5 11 10 11 6 0 10 -2 10
-4z m2050 -6 c0 -5 -5 -10 -11 -10 -5 0 -7 5 -4 10 3 6 8 10 11 10 2 0 4 -4 4
-10z m-2229 -161 c-12 -40 -44 -74 -60 -64 -6 3 -11 26 -11 51 0 42 20 93 59
154 16 24 16 23 19 -40 2 -36 -1 -81 -7 -101z m223 146 c-7 -16 -24 -21 -24
-6 0 8 7 13 27 20 1 1 0 -6 -3 -14z m1756 -7 c0 -13 -23 -5 -28 10 -2 7 2 10
12 6 9 -3 16 -11 16 -16z m61 -9 c-5 -13 -10 -19 -10 -12 -1 15 10 45 15 40 3
-2 0 -15 -5 -28z m586 -1 c-3 -7 -5 -2 -5 12 0 14 2 19 5 13 2 -7 2 -19 0 -25z
m-2251 11 c3 -6 1 -16 -5 -22 -9 -9 -11 -8 -6 5 5 12 0 18 -17 21 -22 4 -22 4
-1 6 12 0 25 -4 29 -10z m252 4 c-43 -2 -113 -2 -155 0 -43 1 -8 3 77 3 85 0
120 -2 78 -3z m1070 0 c-43 -2 -113 -2 -155 0 -43 1 -8 3 77 3 85 0 120 -2 78
-3z m109 -38 c-2 -55 -17 -61 -17 -7 0 33 6 52 16 52 1 0 2 -20 1 -45z m-1760
-2 c-3 -10 -5 -4 -5 12 0 17 2 24 5 18 2 -7 2 -21 0 -30z m138 28 c3 -5 1 -12
-5 -16 -5 -3 -10 1 -10 9 0 18 6 21 15 7z m115 -2 c12 -8 10 -9 -9 -4 -17 5
-22 4 -16 -5 5 -9 4 -11 -3 -6 -7 4 -12 11 -12 17 0 12 21 11 40 -2z m1620 4
c0 -10 -42 -53 -53 -53 -5 0 1 9 14 20 l24 19 -25 1 c-23 1 -23 2 -5 10 25 11
45 12 45 3z m90 -9 c0 -8 -4 -12 -10 -9 -5 3 -10 10 -10 16 0 5 5 9 10 9 6 0
10 -7 10 -16z m-1863 -16 c-3 -8 -6 -5 -6 6 -1 11 2 17 5 13 3 -3 4 -12 1 -19z
m-592 -38 c10 -46 -4 -32 -15 15 -5 21 -5 34 0 29 4 -5 11 -25 15 -44z m192
28 c-3 -8 -6 -5 -6 6 -1 11 2 17 5 13 3 -3 4 -12 1 -19z m494 -1 c-10 -9 -11
-8 -5 6 3 10 9 15 12 12 3 -3 0 -11 -7 -18z m259 13 c0 -6 32 -10 75 -10 43 0
75 -4 75 -10 0 -6 -27 -10 -60 -10 -80 0 -78 -20 3 -22 49 -1 53 -2 20 -5 -24
-2 -43 -8 -43 -14 0 -5 5 -9 10 -9 15 0 12 -26 -4 -39 -12 -10 -15 -7 -18 15
-3 29 -28 47 -28 21 0 -9 5 -17 11 -19 8 -3 6 -14 -6 -37 -16 -31 -18 -32 -33
-17 -16 16 -15 18 5 34 16 12 20 21 13 32 -5 8 -6 18 -3 23 3 5 -9 22 -26 38
-29 26 -34 27 -47 14 -14 -14 -44 -21 -44 -11 0 25 16 36 56 36 24 0 44 -4 44
-10z m200 -90 l0 -100 -25 12 c-24 11 -36 48 -15 48 6 0 10 30 10 70 0 56 3
70 15 70 12 0 15 -18 15 -100z m800 30 c0 -40 4 -70 10 -70 6 0 10 11 10 25 0
41 42 33 68 -13 12 -21 11 -23 -4 -20 -10 2 -21 14 -25 28 -7 24 -7 24 -8 3
-1 -13 -5 -23 -11 -23 -5 0 -10 -8 -10 -18 0 -15 -36 -42 -55 -42 -3 0 -5 45
-5 100 0 82 3 100 15 100 12 0 15 -14 15 -70z m270 50 c0 -24 -13 -26 -34 -5
-13 13 -18 12 -47 -14 -17 -16 -29 -33 -26 -38 3 -5 1 -15 -4 -23 -7 -12 -10
-11 -15 7 -9 31 -24 19 -24 -19 0 -26 -2 -29 -15 -18 -18 15 -20 40 -3 40 29
0 -10 19 -47 23 -32 3 -29 4 18 5 73 2 75 22 2 22 -30 0 -55 5 -55 10 0 6 32
10 75 10 43 0 75 4 75 10 0 6 23 10 50 10 43 0 50 -3 50 -20z m-1934 -37 c72
-62 97 -140 53 -164 -18 -9 -25 -7 -45 13 -31 30 -88 198 -68 198 3 0 30 -21
60 -47z m102 30 c-9 -10 -18 -25 -21 -33 -4 -10 -6 -8 -6 7 -1 12 7 27 17 32
25 15 27 13 10 -6z m2054 -18 c-6 -12 -11 -14 -16 -6 -4 6 -2 11 4 11 7 0 9 7
5 18 -5 13 -3 14 5 5 8 -7 9 -17 2 -28z m-1615 -7 c-3 -7 -5 -2 -5 12 0 14 2
19 5 13 2 -7 2 -19 0 -25z m1964 22 c10 -6 19 -21 19 -34 0 -14 10 -30 25 -40
27 -18 33 -54 13 -74 -13 -13 -68 -17 -68 -4 0 4 -9 18 -19 31 -19 24 -19 24
-46 7 -35 -23 -75 -14 -75 17 0 13 5 28 12 35 15 15 54 16 63 2 12 -19 22 -10
17 15 -4 25 12 55 30 55 5 0 18 -5 29 -10z m46 -12 c2 -17 0 -19 -7 -8 -5 8
-6 18 -4 22 8 12 10 10 11 -14z m-347 -7 c0 -4 -6 -8 -14 -8 -8 0 -12 6 -9 14
5 13 23 9 23 -6z m213 -8 c-7 -2 -21 -2 -30 0 -10 3 -4 5 12 5 17 0 24 -2 18
-5z m-1936 -9 c-3 -3 -12 -4 -19 -1 -8 3 -5 6 6 6 11 1 17 -2 13 -5z m118 -44
c-10 -17 -38 -12 -31 6 3 9 6 23 6 32 0 13 4 11 16 -6 8 -12 12 -27 9 -32z
m1452 44 c-3 -3 -12 -4 -19 -1 -8 3 -5 6 6 6 11 1 17 -2 13 -5z m-1702 -24 c3
-5 1 -10 -4 -10 -6 0 -11 5 -11 10 0 6 2 10 4 10 3 0 8 -4 11 -10z m45 0 c0
-5 -5 -10 -11 -10 -5 0 -7 5 -4 10 3 6 8 10 11 10 2 0 4 -4 4 -10z m160 -6 c0
-8 -4 -12 -10 -9 -5 3 -10 10 -10 16 0 5 5 9 10 9 6 0 10 -7 10 -16z m114 -16
c-3 -4 -12 -8 -20 -8 -17 0 -19 27 -1 33 14 5 28 -13 21 -25z m1206 6 c0 -8
-6 -14 -13 -14 -19 0 -27 10 -20 25 6 17 33 8 33 -11z m63 11 c7 -18 -6 -27
-27 -19 -17 7 -20 16 -9 27 11 12 31 8 36 -8z m37 6 c0 -6 -4 -13 -10 -16 -5
-3 -10 1 -10 9 0 9 5 16 10 16 6 0 10 -4 10 -9z m611 -8 c13 -17 13 -17 -6 -3
-11 8 -22 16 -24 17 -2 2 0 3 6 3 6 0 17 -8 24 -17z m-2126 -31 c-16 -15 -22
-18 -14 -7 24 33 34 43 38 39 3 -3 -8 -17 -24 -32z m355 13 c0 -14 -4 -25 -9
-25 -5 0 -11 11 -13 25 -4 17 -1 25 8 25 8 0 14 -11 14 -25z m1945 15 c3 -5 1
-10 -4 -10 -6 0 -11 5 -11 10 0 6 2 10 4 10 3 0 8 -4 11 -10z m-2816 -42 c1
-5 -3 -8 -7 -8 -4 0 -8 12 -9 28 -1 23 -1 24 7 7 5 -11 9 -23 9 -27z m596 25
c34 -16 41 -33 18 -40 -7 -3 -19 7 -28 21 l-16 25 -29 -32 c-16 -18 -30 -26
-30 -19 0 6 4 12 8 12 5 0 15 11 22 25 16 30 11 29 55 8z m242 -17 c-4 -9 -13
-16 -21 -16 -11 0 -12 5 -3 24 13 27 34 19 24 -8z m1267 -18 c8 -5 8 -8 0 -8
-15 0 -56 45 -47 53 3 4 13 -3 22 -16 8 -12 20 -25 25 -29z m66 37 c0 -1 -6
-7 -13 -13 -10 -8 -13 -6 -13 7 0 11 6 17 13 14 7 -3 13 -6 13 -8z m94 -12
c-18 -13 -87 -15 -78 -2 2 4 18 5 34 3 21 -4 32 -1 36 10 3 9 11 13 17 9 6 -4
3 -11 -9 -20z m123 -20 c-3 -10 -5 -2 -5 17 0 19 2 27 5 18 2 -10 2 -26 0 -35z
m-2011 28 c5 -5 18 -11 29 -14 11 -3 5 -5 -14 -4 -19 1 -36 8 -39 15 -4 14 10
16 24 3z m98 -7 c5 -14 4 -15 -9 -4 -17 14 -19 20 -6 20 5 0 12 -7 15 -16z
m1436 -25 c0 -20 -33 -22 -46 -4 -25 34 -18 47 16 30 17 -9 30 -20 30 -26z
m120 11 c-11 -21 -31 -23 -37 -4 -3 10 38 35 45 29 2 -2 -2 -13 -8 -25z m88
10 c7 -11 11 -20 9 -20 -2 0 -12 9 -22 20 -10 11 -14 20 -9 20 5 0 15 -9 22
-20z m-1855 -10 c3 -12 1 -17 -5 -14 -5 3 -16 -2 -24 -12 -10 -12 -9 -7 2 14
10 17 19 32 20 32 1 0 4 -9 7 -20z m2405 -5 c-3 -3 -9 2 -12 12 -6 14 -5 15 5
6 7 -7 10 -15 7 -18z m135 -4 c-3 -11 -11 -22 -19 -25 -11 -4 -11 0 2 19 20
30 24 31 17 6z m-723 -27 c0 -3 -7 -1 -15 6 -8 7 -15 17 -15 22 0 5 7 3 15 -6
8 -8 15 -18 15 -22z m-1783 -26 c-2 -13 -4 -5 -4 17 -1 22 1 32 4 23 2 -10 2
-28 0 -40z m61 0 c2 -31 -2 -49 -13 -58 -13 -11 -15 -5 -15 50 0 74 23 81 28
8z m300 34 c2 -7 -2 -10 -12 -6 -9 3 -16 11 -16 16 0 13 23 5 28 -10z m1332 9
c0 -5 -7 -11 -15 -15 -15 -5 -20 5 -8 17 9 10 23 9 23 -2z m290 -52 c0 -54 -2
-60 -15 -49 -15 13 -21 90 -8 103 17 17 23 2 23 -54z m-1570 41 c0 -5 -4 -10
-10 -10 -5 0 -10 5 -10 10 0 6 5 10 10 10 6 0 10 -4 10 -10z m80 6 c0 -2 -7
-9 -15 -16 -13 -11 -14 -10 -9 4 5 14 24 23 24 12z m63 -16 c-3 -13 0 -20 8
-20 29 -1 -16 -18 -55 -21 -25 -3 -41 1 -44 9 -2 7 2 10 10 7 7 -3 27 6 43 20
37 30 45 31 38 5z m950 -4 c23 -18 37 -22 47 -16 25 16 31 11 13 -8 -11 -10
-28 -16 -43 -14 -53 7 -70 13 -70 23 0 6 5 7 12 3 8 -5 9 0 6 14 -8 28 -4 27
35 -2z m47 8 c0 -8 -4 -12 -10 -9 -5 3 -10 10 -10 16 0 5 5 9 10 9 6 0 10 -7
10 -16z m80 6 c0 -5 -4 -10 -10 -10 -5 0 -10 5 -10 10 0 6 5 10 10 10 6 0 10
-4 10 -10z m401 -50 c5 0 9 -10 9 -22 -1 -23 -1 -23 -15 2 -8 14 -14 39 -13
55 l1 30 4 -32 c2 -18 8 -33 14 -33z m332 41 c3 -13 1 -18 -9 -14 -7 2 -10 11
-7 19 7 19 10 18 16 -5z m-2841 -18 c3 -16 8 -37 12 -48 4 -12 1 -10 -7 5 -21
36 -30 70 -19 70 5 0 12 -12 14 -27z m712 7 c32 -15 46 -27 46 -41 0 -16 -6
-19 -27 -17 -20 2 -30 -3 -38 -19 l-12 -23 -33 25 c-42 31 -60 32 -53 4 4 -14
0 -25 -11 -31 -12 -7 -16 -17 -12 -32 4 -16 1 -23 -9 -23 -17 0 -18 20 -9 91
l7 46 63 0 c36 0 64 4 64 10 0 6 -28 10 -65 10 -37 0 -65 4 -65 10 0 18 105
11 154 -10z m46 10 c0 -5 -5 -10 -11 -10 -5 0 -7 5 -4 10 3 6 8 10 11 10 2 0
4 -4 4 -10z m1475 0 c3 -5 1 -10 -4 -10 -6 0 -11 5 -11 10 0 6 2 10 4 10 3 0
8 -4 11 -10z m175 0 c0 -6 -28 -10 -65 -10 -37 0 -65 -4 -65 -10 0 -6 28 -10
64 -10 l63 0 7 -46 c9 -67 8 -94 -5 -94 -6 0 -8 7 -5 16 4 10 -1 25 -10 35 -9
10 -14 27 -11 39 7 28 -18 26 -56 -6 -30 -25 -31 -25 -38 -6 -8 22 -32 34 -53
26 -7 -3 -16 2 -19 10 -10 25 76 65 141 66 28 0 52 -4 52 -10z m-2206 -16 c3
-8 2 -12 -4 -9 -6 3 -10 10 -10 16 0 14 7 11 14 -7z m886 -19 c10 -12 10 -21
2 -40 -13 -28 -27 -32 -35 -11 -3 8 1 17 10 21 13 4 14 8 5 17 -7 7 -12 16
-12 20 0 13 17 9 30 -7z m822 3 c-17 -17 -15 -36 5 -40 15 -3 15 -4 0 -19 -9
-9 -13 -19 -10 -23 4 -3 1 -6 -6 -6 -6 0 -11 6 -9 13 1 6 -2 22 -6 35 -8 24 7
52 27 52 7 0 7 -4 -1 -12z m658 -13 c-7 -8 -10 -24 -7 -35 3 -11 1 -18 -4 -14
-13 8 -11 48 3 62 16 16 24 6 8 -13z m-2200 11 c0 -2 -7 -7 -16 -10 -8 -3 -12
-2 -9 4 6 10 25 14 25 6z m-131 -20 c9 -10 8 -15 -3 -19 -10 -4 -14 0 -13 14
2 23 1 23 16 5z m674 -54 c5 -28 -7 -52 -26 -52 -7 0 -7 4 1 12 7 7 12 20 12
29 0 20 -18 35 -28 24 -3 -3 0 -10 7 -14 7 -5 10 -14 7 -20 -10 -16 -36 -13
-36 4 0 8 -8 15 -17 16 -10 0 -34 2 -53 4 -19 1 -27 1 -17 -2 9 -2 17 -8 17
-13 0 -4 -16 -3 -35 3 -19 6 -35 16 -35 24 0 16 11 16 84 1 48 -9 59 -9 67 3
14 23 11 29 -18 30 l-28 1 25 7 c31 10 66 -18 73 -57z m1220 50 c-25 -4 -27
-9 -14 -31 8 -12 18 -13 61 -3 67 16 90 15 90 -2 0 -16 -64 -31 -83 -19 -18
11 -50 4 -65 -15 -10 -13 -15 -13 -24 -4 -10 10 -10 15 2 22 8 5 11 13 6 17
-4 4 -14 -1 -22 -11 -12 -17 -12 -22 3 -38 9 -10 11 -18 6 -18 -19 0 -32 26
-26 51 9 39 41 68 66 61 l22 -7 -22 -3z m-993 -7 c17 -21 5 -31 -15 -12 -8 9
-15 18 -15 21 0 11 18 6 30 -9z m730 9 c0 -3 -7 -12 -15 -21 -20 -19 -32 -9
-15 12 12 15 30 20 30 9z m-1546 -30 c4 -15 5 -28 3 -31 -3 -2 -8 8 -11 22 -4
16 -11 23 -18 19 -7 -4 -8 -3 -4 4 12 19 23 14 30 -14z m663 20 c-3 -3 -12 -4
-19 -1 -8 3 -5 6 6 6 11 1 17 -2 13 -5z m33 -4 c0 -5 -2 -10 -4 -10 -3 0 -8 5
-11 10 -3 6 -1 10 4 10 6 0 11 -4 11 -10z m960 6 c0 -3 -4 -8 -10 -11 -5 -3
-10 -1 -10 4 0 6 5 11 10 11 6 0 10 -2 10 -4z m37 -2 c-3 -3 -12 -4 -19 -1 -8
3 -5 6 6 6 11 1 17 -2 13 -5z m748 -4 c3 -5 1 -10 -4 -10 -6 0 -11 5 -11 10 0
6 2 10 4 10 3 0 8 -4 11 -10z m-2389 -32 c-11 -15 -16 -18 -16 -7 0 16 21 42
28 34 2 -2 -3 -14 -12 -27z m99 3 c-6 -21 -25 -20 -25 0 0 6 5 7 10 4 6 -3 10
2 10 11 0 10 3 15 6 11 3 -3 3 -15 -1 -26z m476 -4 c-10 -9 -11 -8 -5 6 3 10
9 15 12 12 3 -3 0 -11 -7 -18z m1095 -33 c-9 -22 -50 -14 -53 11 -2 11 0 14 3
8 7 -16 34 -17 34 -2 0 5 -4 8 -9 5 -5 -4 -7 3 -4 14 l6 21 14 -21 c8 -12 12
-28 9 -36z m891 30 c-9 -9 -28 6 -21 18 4 6 10 6 17 -1 6 -6 8 -13 4 -17z
m-2897 -19 c0 -5 -5 -3 -10 5 -5 8 -10 20 -10 25 0 6 5 3 10 -5 5 -8 10 -19
10 -25z m1010 26 c0 -15 -23 -26 -28 -13 -2 7 -8 10 -12 7 -5 -3 -11 -1 -15 5
-4 6 6 10 24 10 17 0 31 -4 31 -9z m120 -6 c-7 -9 -15 -13 -17 -11 -7 7 7 26
19 26 6 0 6 -6 -2 -15z m658 -3 c6 -18 -15 -14 -22 4 -4 10 -1 14 6 12 6 -2
14 -10 16 -16z m150 11 c-10 -2 -18 -9 -18 -14 0 -5 -7 -9 -15 -9 -8 0 -15 7
-15 15 0 10 10 15 33 14 17 -1 24 -3 15 -6z m523 -16 c-10 -9 -11 -8 -5 6 3
10 9 15 12 12 3 -3 0 -11 -7 -18z m256 4 c0 -11 -5 -18 -9 -15 -4 3 -5 11 -1
19 7 21 12 19 10 -4z m-1627 -1 c0 -5 -4 -10 -9 -10 -6 0 -13 5 -16 10 -3 6 1
10 9 10 9 0 16 -4 16 -10z m745 0 c-3 -5 -10 -10 -16 -10 -5 0 -9 5 -9 10 0 6
7 10 16 10 8 0 12 -4 9 -10z m-889 -25 c-7 -18 -47 -17 -53 2 -3 7 3 10 15 6
11 -2 23 0 27 7 10 16 19 4 11 -15z m214 11 c0 -8 -4 -18 -10 -21 -5 -3 -10 3
-10 14 0 12 5 21 10 21 6 0 10 -6 10 -14z m600 -7 c0 -11 -4 -17 -10 -14 -5 3
-10 13 -10 21 0 8 5 14 10 14 6 0 10 -9 10 -21z m670 -17 c0 -15 -5 -34 -10
-42 -7 -11 -10 -2 -10 33 0 30 4 46 10 42 6 -3 10 -18 10 -33z m100 29 c0 -5
-6 -14 -14 -20 -12 -10 -13 -8 -9 8 5 21 23 30 23 12z m-1736 -27 c-4 -15 -14
-21 -34 -21 -16 0 -27 4 -24 9 3 4 11 8 18 8 8 0 19 7 26 15 16 19 21 15 14
-11z m1351 -4 c8 0 16 -4 19 -9 3 -5 -8 -8 -26 -7 -24 1 -32 7 -35 25 -3 20
-2 21 13 7 8 -9 22 -16 29 -16z m745 20 c0 -5 -5 -10 -11 -10 -5 0 -7 5 -4 10
3 6 8 10 11 10 2 0 4 -4 4 -10z m-2386 -158 c36 -49 188 -200 244 -243 l33
-26 -25 -56 -25 -57 25 -13 c26 -14 156 -158 149 -165 -9 -9 -191 91 -267 145
-112 81 -243 222 -334 359 -42 63 -74 117 -72 119 2 3 44 -28 92 -67 l89 -71
-7 119 -7 119 35 -58 c20 -33 51 -80 70 -105z m-42 141 c10 -9 18 -28 17 -42
l0 -26 -12 25 c-6 14 -17 31 -24 38 -25 26 -9 31 19 5z m123 7 c3 -5 1 -10 -4
-10 -6 0 -11 5 -11 10 0 6 2 10 4 10 3 0 8 -4 11 -10z m56 -20 c5 0 9 7 9 15
0 16 5 17 35 6 18 -7 18 -9 -8 -26 -22 -14 -30 -15 -42 -5 -8 7 -14 20 -14 29
1 13 2 13 6 -1 2 -10 9 -18 14 -18z m384 20 c3 -5 1 -10 -4 -10 -6 0 -11 5
-11 10 0 6 2 10 4 10 3 0 8 -4 11 -10z m50 0 c3 -5 -1 -10 -9 -10 -9 0 -16 5
-16 10 0 6 4 10 9 10 6 0 13 -4 16 -10z m45 6 c0 -11 -19 -15 -25 -6 -3 5 1
10 9 10 9 0 16 -2 16 -4z m680 -6 c0 -5 -2 -10 -4 -10 -3 0 -8 5 -11 10 -3 6
-1 10 4 10 6 0 11 -4 11 -10z m40 0 c0 -5 -5 -10 -11 -10 -5 0 -7 5 -4 10 3 6
8 10 11 10 2 0 4 -4 4 -10z m45 0 c-3 -5 -11 -10 -16 -10 -6 0 -7 5 -4 10 3 6
11 10 16 10 6 0 7 -4 4 -10z m384 -3 c8 14 10 15 11 3 0 -36 -33 -44 -68 -16
-11 8 -10 11 5 17 11 4 22 1 30 -8 10 -12 13 -12 22 4z m61 3 c0 -5 -5 -10
-11 -10 -5 0 -7 5 -4 10 3 6 8 10 11 10 2 0 4 -4 4 -10z m-2022 -31 c-3 -8 -7
-3 -11 10 -4 17 -3 21 5 13 5 -5 8 -16 6 -23z m42 3 c1 -15 2 -15 15 2 14 18
15 14 14 -45 0 -52 -2 -59 -10 -40 -5 14 -7 31 -4 38 2 8 1 12 -4 9 -4 -3 -13
10 -19 29 -5 19 -6 33 -1 29 5 -3 9 -13 9 -22z m835 18 c3 -5 -1 -10 -10 -10
-9 0 -13 5 -10 10 3 6 8 10 10 10 2 0 7 -4 10 -10z m550 0 c3 -5 -1 -10 -9
-10 -9 0 -16 5 -16 10 0 6 4 10 9 10 6 0 13 -4 16 -10z m741 -95 c-4 -58 -4
-105 -1 -105 4 0 45 29 91 66 46 36 84 63 84 60 0 -12 -87 -146 -140 -216
-118 -155 -306 -309 -465 -381 -37 -16 -69 -29 -70 -27 -2 2 34 47 81 100 l84
96 -20 47 -20 47 27 21 c126 98 277 267 327 365 9 17 19 32 23 32 3 0 3 -47
-1 -105z m197 73 c-28 -30 -37 -31 -27 -4 3 9 11 13 17 9 6 -4 8 0 5 8 -4 10
1 15 13 15 16 0 15 -4 -8 -28z m-2433 -15 c0 -7 -39 17 -46 28 -3 6 5 3 20 -6
14 -10 26 -19 26 -22z m655 27 c3 -5 1 -10 -4 -10 -6 0 -11 5 -11 10 0 6 2 10
4 10 3 0 8 -4 11 -10z m81 -17 c-7 -7 -26 7 -26 19 0 6 6 6 15 -2 9 -7 13 -15
11 -17z m968 12 c-4 -8 -11 -15 -16 -15 -6 0 -5 6 2 15 7 8 14 15 16 15 2 0 1
-7 -2 -15z m76 5 c0 -5 -5 -10 -11 -10 -5 0 -7 5 -4 10 3 6 8 10 11 10 2 0 4
-4 4 -10z m853 -5 c-3 -9 -8 -14 -10 -11 -3 3 -2 9 2 15 9 16 15 13 8 -4z
m-973 1 c0 -3 -4 -8 -10 -11 -5 -3 -10 -1 -10 4 0 6 5 11 10 11 6 0 10 -2 10
-4z m638 -10 c-10 -7 -15 -15 -13 -18 3 -3 -2 -18 -10 -34 l-16 -29 3 40 c2
30 8 42 23 47 30 9 32 9 13 -6z m-2508 -31 c0 -5 -5 -3 -10 5 -5 8 -10 20 -10
25 0 6 5 3 10 -5 5 -8 10 -19 10 -25z m594 16 c14 -12 24 -13 48 -3 21 8 37 8
49 1 13 -6 25 -6 39 1 19 10 19 9 8 -17 -6 -15 -15 -32 -20 -38 -4 -5 -8 -19
-8 -31 0 -12 -11 -45 -24 -74 -14 -31 -23 -64 -21 -82 l4 -29 -33 28 c-18 15
-40 38 -50 51 l-17 22 51 0 c37 0 50 4 48 13 -3 6 -14 13 -26 15 -14 2 -22 11
-22 23 0 16 7 19 40 19 22 0 40 5 40 10 0 6 -32 10 -75 10 -60 0 -75 3 -75 15
0 11 12 15 51 15 36 0 49 4 47 13 -3 8 -30 12 -86 12 -59 0 -82 4 -82 13 0 6
9 12 20 12 11 0 20 3 20 8 0 13 56 8 74 -7z m1126 9 c0 -5 -5 -10 -11 -10 -5
0 -7 5 -4 10 3 6 8 10 11 10 2 0 4 -4 4 -10z m603 -6 c15 -3 27 -11 27 -18 0
-7 -27 -11 -82 -11 -56 0 -83 -4 -86 -12 -2 -9 11 -13 47 -13 39 0 51 -4 51
-15 0 -12 -15 -15 -75 -15 l-75 0 -20 42 c-25 51 -25 51 0 38 14 -7 26 -7 39
-1 12 7 28 7 50 -2 26 -10 34 -9 48 6 10 9 24 15 33 12 8 -2 27 -7 43 -11z
m-2143 -49 c0 -11 -14 7 -31 40 -7 13 -3 12 10 -5 11 -14 21 -29 21 -35z m687
49 c-3 -3 -12 -4 -19 -1 -8 3 -5 6 6 6 11 1 17 -2 13 -5z m973 -4 c0 -5 -5
-10 -11 -10 -5 0 -7 5 -4 10 3 6 8 10 11 10 2 0 4 -4 4 -10z m157 4 c-3 -3
-12 -4 -19 -1 -8 3 -5 6 6 6 11 1 17 -2 13 -5z m676 -14 c-3 -10 -12 -25 -21
-32 -13 -11 -12 -8 2 20 19 36 27 41 19 12z m-2383 0 c0 -5 -2 -10 -4 -10 -3
0 -8 5 -11 10 -3 6 -1 10 4 10 6 0 11 -4 11 -10z m678 3 c-10 -2 -18 -9 -18
-14 0 -6 -5 -7 -11 -3 -14 8 8 24 31 23 11 -1 10 -3 -2 -6z m931 -2 c9 -6 10
-11 2 -15 -6 -4 -11 -3 -11 3 0 5 -8 12 -17 14 -13 3 -14 5 -3 6 8 0 21 -3 29
-8z m652 -44 l-20 -21 17 38 c12 26 18 33 20 21 2 -10 -5 -27 -17 -38z m253
-19 c-31 -70 -55 -106 -29 -43 33 82 49 115 53 111 2 -3 -9 -33 -24 -68z
m-2524 38 c0 -11 -19 -15 -25 -6 -3 5 1 10 9 10 9 0 16 -2 16 -4z m34 -46 c10
-13 9 -13 -9 0 -11 8 -22 15 -24 17 -1 1 1 7 5 14 6 10 9 10 12 -1 3 -8 10
-22 16 -30z m-284 -5 c0 -5 -5 -3 -10 5 -5 8 -10 20 -10 25 0 6 5 3 10 -5 5
-8 10 -19 10 -25z m500 20 c0 -8 -9 -15 -19 -15 -10 0 -21 7 -25 15 -4 11 1
15 19 15 16 0 25 -6 25 -15z m420 -12 c0 -19 -13 -9 -16 12 -1 8 2 13 7 9 5
-3 9 -12 9 -21z m1394 12 c-4 -8 -15 -15 -25 -15 -10 0 -19 7 -19 15 0 9 9 15
25 15 18 0 23 -4 19 -15z m-2095 -93 c34 -52 58 -91 53 -88 -5 3 -22 24 -38
48 -16 24 -40 58 -53 77 -14 18 -26 40 -27 48 -3 20 -5 22 65 -85z m495 67
c-2 -4 0 -10 6 -14 12 -7 13 -25 2 -25 -12 0 -30 43 -24 59 4 11 6 11 13 0 4
-7 6 -16 3 -20z m1121 21 c3 -5 1 -10 -4 -10 -6 0 -11 5 -11 10 0 6 2 10 4 10
3 0 8 -4 11 -10z m35 -6 c0 -8 -5 -12 -10 -9 -6 4 -8 11 -5 16 9 14 15 11 15
-7z m208 -29 c-6 -13 -15 -22 -20 -19 -4 3 -7 8 -5 12 2 4 7 15 10 25 4 10 11
16 17 12 6 -4 5 -15 -2 -30z m503 -12 c-12 -20 -14 -14 -5 12 4 9 9 14 11 11
3 -2 0 -13 -6 -23z m-2551 -27 c0 -12 -5 -7 -19 24 -11 24 -11 24 3 6 9 -11
16 -24 16 -30z m542 22 c4 -20 0 -23 -27 -24 -21 0 -36 7 -48 23 l-18 23 44 0
c38 0 45 -3 49 -22z m1608 3 c0 -12 -8 -21 -20 -23 -37 -6 -21 -23 25 -28 l46
-5 -44 -43 -44 -43 -1 37 c-1 20 -13 56 -27 80 l-26 44 46 0 c38 0 45 -3 45
-19z m92 -3 c-13 -13 -35 -23 -50 -23 -24 0 -28 4 -24 23 4 19 11 22 50 22
l46 0 -22 -22z m-1365 -20 c-3 -7 -5 -2 -5 12 0 14 2 19 5 13 2 -7 2 -19 0
-25z m973 11 c0 -11 -4 -18 -10 -14 -5 3 -7 12 -3 20 7 21 13 19 13 -6z
m-1070 7 c0 -3 -4 -8 -10 -11 -5 -3 -10 -1 -10 4 0 6 5 11 10 11 6 0 10 -2 10
-4z m1035 -6 c3 -5 1 -10 -4 -10 -6 0 -11 5 -11 10 0 6 2 10 4 10 3 0 8 -4 11
-10z m145 0 c0 -5 -2 -10 -4 -10 -3 0 -8 5 -11 10 -3 6 -1 10 4 10 6 0 11 -4
11 -10z m-30 -20 c-8 -5 -11 -12 -7 -17 4 -4 16 -2 27 5 16 10 20 8 25 -9 8
-25 -2 -39 -11 -15 -4 10 -11 13 -18 8 -6 -5 -21 -4 -35 4 -22 11 -22 12 -5
23 23 13 45 14 24 1z m-1140 -33 c0 -4 -5 -5 -10 -2 -6 4 -17 1 -25 -5 -16
-13 -19 -3 -9 24 5 12 9 13 25 3 10 -6 19 -15 19 -20z m35 23 c3 -5 -1 -10 -9
-10 -9 0 -16 5 -16 10 0 6 4 10 9 10 6 0 13 -4 16 -10z m65 -11 c0 -5 -4 -7
-10 -4 -16 10 -12 -7 7 -27 18 -20 4 -25 -15 -6 -17 17 -15 48 3 48 8 0 15 -5
15 -11z m964 2 c8 -13 -3 -38 -20 -45 -8 -3 -24 -1 -36 4 -21 9 -21 9 7 7 22
-1 30 3 33 18 2 16 1 17 -7 5 -11 -16 -27 -7 -16 9 8 13 32 14 39 2z m676 -5
c0 -8 -5 -18 -12 -22 -7 -4 -8 -3 -4 4 4 7 2 12 -4 12 -6 0 -8 5 -5 10 9 15
25 12 25 -4z m170 6 c0 -5 -7 -17 -16 -28 -8 -10 -14 -14 -11 -9 2 6 7 18 10
28 7 17 17 23 17 9z m-2045 -12 c3 -5 -1 -10 -9 -10 -9 0 -16 5 -16 10 0 6 4
10 9 10 6 0 13 -4 16 -10z m192 -10 c2 -24 -16 -37 -27 -19 -6 8 -2 18 8 26 9
7 17 13 17 13 1 0 1 -9 2 -20z m1056 -17 c-8 -20 -27 -10 -31 16 -3 20 -1 21
16 10 11 -7 18 -19 15 -26z m177 27 c0 -5 -4 -10 -10 -10 -5 0 -10 5 -10 10 0
6 5 10 10 10 6 0 10 -4 10 -10z m-2036 -47 c9 -18 14 -33 12 -33 -6 0 -36 55
-36 66 0 11 5 3 24 -33z m14 12 c-3 -3 -9 2 -12 12 -6 14 -5 15 5 6 7 -7 10
-15 7 -18z m586 -6 c-6 -11 -24 -2 -24 11 0 5 7 7 15 4 8 -4 12 -10 9 -15z
m1303 15 c-3 -3 -12 -4 -19 -1 -8 3 -5 6 6 6 11 1 17 -2 13 -5z m147 -9 c-4
-8 -10 -12 -15 -9 -11 6 -2 24 11 24 5 0 7 -7 4 -15z m-1414 -26 c0 -5 -4 -9
-10 -9 -5 0 -10 7 -10 16 0 8 5 12 10 9 6 -3 10 -10 10 -16z m218 8 c14 0 16
-23 2 -32 -5 -3 -10 0 -10 8 0 8 -10 19 -22 26 -18 9 -18 10 -3 5 11 -3 26 -7
33 -7z m955 1 c-13 -6 -23 -17 -23 -25 0 -8 -4 -11 -10 -8 -5 3 -10 13 -10 21
0 8 4 13 8 10 4 -2 14 -1 22 5 8 5 20 8 25 8 6 0 0 -5 -12 -11z m203 -15 c-10
-10 -19 5 -10 18 6 11 8 11 12 0 2 -7 1 -15 -2 -18z m-1319 11 c-3 -3 -12 -4
-19 -1 -8 3 -5 6 6 6 11 1 17 -2 13 -5z m98 -4 c3 -5 2 -10 -4 -10 -5 0 -13 5
-16 10 -3 6 -2 10 4 10 5 0 13 -4 16 -10z m960 0 c-3 -5 -10 -10 -16 -10 -5 0
-9 5 -9 10 0 6 7 10 16 10 8 0 12 -4 9 -10z m105 0 c0 -5 -5 -10 -11 -10 -5 0
-7 5 -4 10 3 6 8 10 11 10 2 0 4 -4 4 -10z m107 4 c-3 -3 -12 -4 -19 -1 -8 3
-5 6 6 6 11 1 17 -2 13 -5z m-1372 -14 c3 -5 1 -10 -4 -10 -6 0 -11 5 -11 10
0 6 2 10 4 10 3 0 8 -4 11 -10z m152 2 c8 -5 9 -12 2 -22 -8 -13 -10 -13 -19
0 -9 13 -12 13 -24 -3 -10 -13 -15 -15 -18 -5 -5 13 19 37 37 38 6 0 15 -4 22
-8z m1183 -2 c0 -5 7 -10 15 -10 9 0 12 -6 9 -15 -8 -20 -24 -19 -24 1 0 11
-5 14 -16 10 -22 -8 -40 4 -23 15 19 12 39 11 39 -1z m130 6 c0 -3 -4 -8 -10
-11 -5 -3 -10 -1 -10 4 0 6 5 11 10 11 6 0 10 -2 10 -4z m-1398 -28 c-7 -7
-12 -8 -12 -2 0 6 3 14 7 17 3 4 9 5 12 2 2 -3 -1 -11 -7 -17z m168 18 c0 -3
-4 -8 -10 -11 -5 -3 -10 -1 -10 4 0 6 5 11 10 11 6 0 10 -2 10 -4z m1000 -6
c0 -5 -4 -10 -10 -10 -5 0 -10 5 -10 10 0 6 5 10 10 10 6 0 10 -4 10 -10z
m160 -11 c0 -6 -4 -7 -10 -4 -5 3 -10 11 -10 16 0 6 5 7 10 4 6 -3 10 -11 10
-16z m-1374 -16 c-10 -10 -19 5 -10 18 6 11 8 11 12 0 2 -7 1 -15 -2 -18z
m174 23 c0 -3 -4 -8 -10 -11 -5 -3 -10 -1 -10 4 0 6 5 11 10 11 6 0 10 -2 10
-4z m940 -12 c0 -8 -4 -12 -10 -9 -5 3 -10 10 -10 16 0 5 5 9 10 9 6 0 10 -7
10 -16z m140 6 c0 -5 -4 -10 -10 -10 -5 0 -10 5 -10 10 0 6 5 10 10 10 6 0 10
-4 10 -10z m167 -16 c-9 -9 -28 6 -21 18 4 6 10 6 17 -1 6 -6 8 -13 4 -17z
m357 1 c-14 -14 -22 -30 -19 -35 3 -6 1 -10 -4 -10 -6 0 -11 4 -11 9 0 12 40
61 50 61 5 0 -2 -11 -16 -25z m-2354 -6 c0 -6 -4 -7 -10 -4 -5 3 -10 11 -10
16 0 6 5 7 10 4 6 -3 10 -11 10 -16z m205 1 c10 -11 14 -20 9 -20 -5 0 -15 9
-22 20 -7 11 -11 20 -9 20 2 0 12 -9 22 -20z m587 -2 c-7 -7 -12 -8 -12 -2 0
6 3 14 7 17 3 4 9 5 12 2 2 -3 -1 -11 -7 -17z m58 18 c0 -3 -4 -8 -10 -11 -5
-3 -10 -1 -10 4 0 6 5 11 10 11 6 0 10 -2 10 -4z m880 -6 c0 -5 -2 -10 -4 -10
-3 0 -8 5 -11 10 -3 6 -1 10 4 10 6 0 11 -4 11 -10z m819 -24 c-7 -14 -16 -26
-21 -26 -5 0 -1 13 8 30 21 35 30 33 13 -4z m-769 14 c0 -5 -2 -10 -4 -10 -3
0 -8 5 -11 10 -3 6 -1 10 4 10 6 0 11 -4 11 -10z m-1188 -22 c-7 -7 -12 -8
-12 -2 0 6 3 14 7 17 3 4 9 5 12 2 2 -3 -1 -11 -7 -17z m48 7 c0 -8 -4 -15
-10 -15 -5 0 -10 7 -10 15 0 8 5 15 10 15 6 0 10 -7 10 -15z m83 -9 c63 -37
210 -95 292 -116 269 -69 544 -32 792 107 l63 35 9 -25 c6 -14 24 -53 40 -86
l31 -60 -88 -42 c-407 -193 -844 -202 -1172 -23 -108 59 -105 53 -57 150 23
46 43 84 45 84 2 0 22 -11 45 -24z m37 20 c0 -3 -4 -8 -10 -11 -5 -3 -10 -1
-10 4 0 6 5 11 10 11 6 0 10 -2 10 -4z m56 -23 c-10 -10 -19 5 -10 18 6 11 8
11 12 0 2 -7 1 -15 -2 -18z m40 0 c-10 -10 -19 5 -10 18 6 11 8 11 12 0 2 -7
1 -15 -2 -18z m44 17 c0 -5 -5 -10 -11 -10 -5 0 -7 5 -4 10 3 6 8 10 11 10 2
0 4 -4 4 -10z m775 0 c3 -5 2 -10 -4 -10 -5 0 -13 5 -16 10 -3 6 -2 10 4 10 5
0 13 -4 16 -10z m39 -11 c-3 -5 -10 -7 -15 -3 -5 3 -7 10 -3 15 3 5 10 7 15 3
5 -3 7 -10 3 -15z m46 0 c0 -5 -4 -9 -10 -9 -5 0 -10 7 -10 16 0 8 5 12 10 9
6 -3 10 -10 10 -16z m180 6 c0 -8 -4 -15 -10 -15 -5 0 -10 7 -10 15 0 8 5 15
10 15 6 0 10 -7 10 -15z m35 5 c3 -5 1 -10 -4 -10 -6 0 -11 5 -11 10 0 6 2 10
4 10 3 0 8 -4 11 -10z m-411 -13 c3 4 13 -2 20 -13 8 -10 23 -19 33 -20 55 -3
63 -5 63 -13 0 -5 -13 -12 -29 -16 -35 -7 -75 11 -111 50 -22 25 -23 27 -4 17
12 -6 24 -8 28 -5z m-1517 -62 c21 -42 1 -19 -26 30 -13 22 -15 31 -6 20 9
-11 23 -33 32 -50z m913 55 c0 -5 -4 -10 -10 -10 -5 0 -10 5 -10 10 0 6 5 10
10 10 6 0 10 -4 10 -10z m55 -10 c-28 -31 -80 -53 -108 -46 -51 12 -25 33 35
28 10 -1 23 7 30 17 6 10 22 19 35 19 22 0 23 -2 8 -18z m543 -72 c-18 -3 -35
-5 -37 -2 -2 2 1 4 8 4 7 0 9 5 5 12 -5 8 -2 9 9 5 25 -10 20 1 -13 30 -16 13
-30 29 -30 35 0 5 20 -10 46 -34 l45 -43 -33 -7z m62 82 c0 -5 -4 -10 -10 -10
-5 0 -10 5 -10 10 0 6 5 10 10 10 6 0 10 -4 10 -10z m-1355 -41 c22 -22 33
-37 24 -34 -9 3 -26 19 -38 36 -12 16 -27 27 -33 23 -7 -4 -8 -3 -4 4 10 16 7
17 51 -29z m615 31 c0 -5 -5 -10 -11 -10 -5 0 -7 5 -4 10 3 6 8 10 11 10 2 0
4 -4 4 -10z m40 6 c0 -3 -4 -8 -10 -11 -5 -3 -10 -1 -10 4 0 6 5 11 10 11 6 0
10 -2 10 -4z m740 -6 c0 -5 -2 -10 -4 -10 -3 0 -8 5 -11 10 -3 6 -1 10 4 10 6
0 11 -4 11 -10z m35 0 c3 -5 1 -10 -4 -10 -6 0 -11 5 -11 10 0 6 2 10 4 10 3
0 8 -4 11 -10z m-855 -10 c0 -5 -2 -10 -4 -10 -3 0 -8 5 -11 10 -3 6 -1 10 4
10 6 0 11 -4 11 -10z m900 6 c0 -3 -4 -8 -10 -11 -5 -3 -10 -1 -10 4 0 6 5 11
10 11 6 0 10 -2 10 -4z m185 -6 c3 -5 1 -10 -4 -10 -6 0 -11 5 -11 10 0 6 2
10 4 10 3 0 8 -4 11 -10z m385 7 c0 -7 -34 -42 -55 -57 -11 -8 -4 3 14 23 33
35 41 42 41 34z m190 -51 c-30 -49 -36 -46 -8 3 12 22 24 38 26 36 3 -2 -6
-20 -18 -39z m-1483 27 c-4 -3 -2 -12 4 -20 9 -10 8 -13 -2 -13 -11 0 -11 -3
1 -11 12 -9 12 -10 -3 -5 -10 3 -25 6 -33 6 -9 0 -13 4 -9 10 3 5 13 6 22 3
12 -5 15 -2 10 9 -5 15 0 28 11 28 3 0 2 -3 -1 -7z m489 -59 c0 -1 -18 -4 -38
-7 -31 -5 -35 -3 -25 7 6 8 18 11 24 9 7 -3 13 0 13 6 0 8 4 8 14 -1 8 -7 13
-13 12 -14z m-1411 -23 c-3 -2 0 -10 6 -18 6 -7 9 -13 6 -13 -3 0 -16 14 -28
31 -21 30 -21 31 -1 18 12 -7 19 -15 17 -18z m260 -11 c21 -22 37 -40 34 -40
-3 0 -23 18 -44 40 -21 22 -37 40 -34 40 3 0 23 -18 44 -40z m758 33 c-7 -2
-21 -2 -30 0 -10 3 -4 5 12 5 17 0 24 -2 18 -5z m1114 -16 c-15 -5 -27 -13
-27 -18 0 -5 -5 -9 -12 -9 -6 0 -1 11 11 24 14 15 29 22 39 18 12 -4 10 -8
-11 -15z m-954 -4 c-13 -2 -33 -2 -45 0 -13 2 -3 4 22 4 25 0 35 -2 23 -4z
m95 0 c-10 -2 -28 -2 -40 0 -13 2 -5 4 17 4 22 1 32 -1 23 -4z m1076 -30 c-57
-78 -64 -85 -64 -76 0 6 6 16 14 23 8 6 12 19 9 27 -4 11 -2 14 5 9 8 -4 19 4
30 23 9 17 21 31 26 31 4 0 -4 -17 -20 -37z m-305 -36 c-20 -17 -55 -43 -78
-57 -24 -14 -56 -36 -72 -48 -16 -13 -29 -20 -29 -15 0 5 18 20 41 33 22 14
68 46 102 72 72 55 88 62 36 15z m-2004 14 c3 -5 1 -12 -4 -15 -5 -3 -11 1
-15 9 -6 16 9 21 19 6z m335 -57 c0 -1 -5 -6 -10 -9 -6 -4 -9 -2 -8 2 2 5 -10
22 -27 37 l-30 28 38 -27 c20 -15 37 -29 37 -31z m1404 4 c-56 -68 -115 -131
-117 -127 -2 2 -13 20 -25 39 l-21 35 87 42 c48 23 91 42 95 42 5 1 -3 -14
-19 -31z m-1704 2 c0 -5 -4 -10 -10 -10 -5 0 -10 5 -10 10 0 6 5 10 10 10 6 0
10 -4 10 -10z m576 -32 c38 -17 70 -32 72 -34 2 -1 -1 -11 -7 -21 -28 -50 -28
-50 -73 2 -48 53 -71 85 -65 85 3 0 36 -14 73 -32z m-535 -30 c16 -29 2 -21
-22 15 -17 23 -18 28 -6 18 10 -8 23 -23 28 -33z m1906 26 c-3 -3 -12 -4 -19
-1 -8 3 -5 6 6 6 11 1 17 -2 13 -5z m193 -59 c-30 -30 -59 -55 -64 -55 -6 0
11 18 37 41 26 23 44 46 40 52 -3 5 -1 7 4 4 6 -4 14 0 17 9 4 9 9 14 13 10 4
-3 -18 -31 -47 -61z m-593 -12 c14 -24 23 -43 20 -43 -3 0 -16 18 -28 40 -12
21 -29 41 -38 44 -11 3 -11 4 2 3 11 -1 30 -21 44 -44z m-76 14 c-10 -9 -11
-8 -5 6 3 10 9 15 12 12 3 -3 0 -11 -7 -18z m-781 5 c0 -4 -9 -13 -21 -20 -12
-8 -18 -19 -15 -28 3 -8 -1 -14 -10 -14 -15 0 -15 1 16 48 15 22 30 29 30 14z
m1085 -2 c-3 -5 -12 -10 -18 -10 -7 0 -6 4 3 10 19 12 23 12 15 0z m-1691 -16
c5 -14 4 -15 -9 -4 -17 14 -19 20 -6 20 5 0 12 -7 15 -16z m643 10 c-3 -3 -12
-4 -19 -1 -8 3 -5 6 6 6 11 1 17 -2 13 -5z m-242 -22 c-3 -3 -11 0 -18 7 -9
10 -8 11 6 5 10 -3 15 -9 12 -12z m285 6 c0 -4 -9 -8 -21 -8 -11 0 -18 4 -15
8 3 5 12 9 21 9 8 0 15 -4 15 -9z m563 -5 c-7 -2 -19 -2 -25 0 -7 3 -2 5 12 5
14 0 19 -2 13 -5z m397 3 c0 -3 -4 -8 -10 -11 -5 -3 -10 -1 -10 4 0 6 5 11 10
11 6 0 10 -2 10 -4z m-1210 -16 c0 -5 -4 -10 -10 -10 -5 0 -10 5 -10 10 0 6 5
10 10 10 6 0 10 -4 10 -10z m337 4 c-3 -3 -12 -4 -19 -1 -8 3 -5 6 6 6 11 1
17 -2 13 -5z m423 -4 c-8 -5 -28 -9 -45 -9 l-30 1 30 8 c17 4 37 8 45 9 13 1
13 0 0 -9z m400 -10 c-24 -15 -36 -11 -14 4 10 8 21 12 24 10 2 -3 -2 -9 -10
-14z m-493 4 c-3 -3 -12 -4 -19 -1 -8 3 -5 6 6 6 11 1 17 -2 13 -5z m-1042
-22 c-3 -3 -11 0 -18 7 -9 10 -8 11 6 5 10 -3 15 -9 12 -12z m948 11 c-18 -2
-48 -2 -65 0 -18 2 -4 4 32 4 36 0 50 -2 33 -4z m951 -2 c3 -5 -1 -11 -9 -14
-9 -4 -12 -1 -8 9 6 16 10 17 17 5z m-1859 -11 c3 -5 1 -10 -4 -10 -6 0 -11 5
-11 10 0 6 2 10 4 10 3 0 8 -4 11 -10z m425 -4 c0 -2 -7 -7 -16 -10 -8 -3 -12
-2 -9 4 6 10 25 14 25 6z m990 -6 c-8 -5 -19 -10 -25 -10 -5 0 -3 5 5 10 8 5
20 10 25 10 6 0 3 -5 -5 -10z m-1305 -21 c4 -6 13 -8 21 -5 7 3 16 1 19 -4 6
-10 -35 -5 -80 9 l-30 9 32 1 c17 1 35 -4 38 -10z m1632 -5 c-3 -3 -12 -4 -19
-1 -8 3 -5 6 6 6 11 1 17 -2 13 -5z m-1504 -31 c-7 -2 -21 -2 -30 0 -10 3 -4
5 12 5 17 0 24 -2 18 -5z m1374 1 c-3 -3 -12 -4 -19 -1 -8 3 -5 6 6 6 11 1 17
-2 13 -5z m-1232 -24 c3 -5 -1 -10 -9 -10 -9 0 -16 5 -16 10 0 6 4 10 9 10 6
0 13 -4 16 -10z m1025 0 c0 -5 -10 -10 -22 -9 -22 0 -22 1 -3 9 11 5 21 9 23
9 1 1 2 -3 2 -9z m50 0 c-20 -13 -33 -13 -25 0 3 6 14 10 23 10 15 0 15 -2 2
-10z m47 4 c-3 -3 -12 -4 -19 -1 -8 3 -5 6 6 6 11 1 17 -2 13 -5z m-1014 -21
c-7 -2 -19 -2 -25 0 -7 3 -2 5 12 5 14 0 19 -2 13 -5z m850 0 c-7 -2 -21 -2
-30 0 -10 3 -4 5 12 5 17 0 24 -2 18 -5z m-770 -10 c-7 -2 -21 -2 -30 0 -10 3
-4 5 12 5 17 0 24 -2 18 -5z m680 0 c-13 -2 -33 -2 -45 0 -13 2 -3 4 22 4 25
0 35 -2 23 -4z m-500 -10 c-7 -2 -21 -2 -30 0 -10 3 -4 5 12 5 17 0 24 -2 18
-5z m365 0 c-10 -2 -26 -2 -35 0 -10 3 -2 5 17 5 19 0 27 -2 18 -5z"/>
<path d="M2698 1793 c6 -2 18 -2 25 0 6 3 1 5 -13 5 -14 0 -19 -2 -12 -5z"/>
<path d="M1011 1494 c-19 -19 -32 -37 -28 -40 3 -3 15 4 26 15 24 24 51 28 51
7 0 -8 7 -17 16 -20 10 -4 14 -12 10 -22 -5 -14 -4 -15 9 -4 19 16 19 40 0 40
-8 0 -15 7 -15 15 0 8 -7 15 -15 15 -9 0 -12 6 -9 15 10 25 -9 16 -45 -21z"/>
<path d="M1117 1437 c-15 -23 -15 -24 9 -19 19 3 22 8 14 17 -8 9 -7 15 2 18
8 3 9 6 2 6 -7 1 -19 -10 -27 -22z"/>
<path d="M1030 1400 c0 -5 10 -10 23 -10 18 0 19 2 7 10 -19 13 -30 13 -30 0z"/>
<path d="M1120 1400 c-13 -9 -13 -10 0 -10 9 0 5 -6 -9 -13 -14 -6 -27 -19
-29 -27 -4 -12 -1 -11 15 3 11 9 27 17 37 17 24 0 60 -36 51 -52 -4 -7 1 -5
11 5 18 17 18 19 2 31 -10 7 -18 18 -18 25 0 6 -7 11 -16 11 -8 0 -12 5 -9 10
8 13 -15 13 -35 0z"/>
<path d="M1223 1338 c-22 -29 -23 -36 -2 -31 11 3 18 11 15 19 -3 7 0 15 7 18
8 3 8 5 1 5 -6 1 -16 -5 -21 -11z"/>
<path d="M1131 1290 c-19 -11 5 -23 25 -12 14 8 14 10 2 15 -8 3 -21 2 -27 -3z"/>
<path d="M2790 1430 c0 -5 -7 -10 -15 -10 -8 0 -15 -4 -15 -10 0 -5 -7 -10
-15 -10 -24 0 -17 -20 11 -31 30 -11 47 -3 24 11 -13 8 -12 12 5 24 46 35 69
0 30 -46 -29 -35 -30 -41 -9 -62 22 -23 47 -21 39 3 -8 26 29 48 51 30 10 -8
14 -8 14 0 0 16 -48 25 -65 11 -7 -6 -16 -21 -18 -33 -3 -19 -4 -20 -11 -5 -5
12 -1 26 13 44 26 33 27 56 3 77 -21 19 -42 22 -42 7z"/>
<path d="M2704 1369 c-10 -16 18 -40 35 -29 12 7 12 11 2 24 -16 19 -27 20
-37 5z"/>
<path d="M1420 1297 c-7 -28 -17 -57 -21 -63 -6 -7 5 -17 32 -30 l41 -18 19
23 c35 42 21 99 -30 126 l-29 15 -12 -53z m60 -21 c0 -40 -24 -76 -39 -60 -8
7 -8 20 0 45 6 19 13 40 15 47 7 24 24 2 24 -32z"/>
<path d="M2470 1330 c-23 -23 -24 -35 -9 -78 13 -37 40 -48 79 -32 24 10 27
15 21 38 -5 15 -6 33 -3 41 3 10 0 12 -12 8 -10 -4 -19 -7 -21 -7 -2 0 -1 -16
2 -36 5 -29 3 -36 -8 -32 -21 7 -41 55 -34 79 5 16 12 19 31 15 18 -5 22 -3
18 9 -8 21 -40 19 -64 -5z"/>
<path d="M2418 1305 c-3 -6 -3 -30 2 -54 9 -49 4 -71 -15 -71 -13 0 -25 42
-25 86 0 15 -6 24 -16 24 -14 0 -15 -8 -9 -57 4 -32 9 -61 12 -65 7 -12 37 -9
58 6 16 12 17 20 9 77 -5 35 -12 59 -16 54z"/>
<path d="M1532 1266 c-1 -17 -6 -46 -11 -64 -9 -31 -8 -33 26 -47 44 -18 39
-19 48 8 7 21 7 21 12 2 5 -22 30 -45 49 -45 17 0 44 28 44 45 0 8 -12 25 -27
39 -28 26 -26 49 2 26 12 -10 15 -10 15 4 0 17 -42 32 -59 21 -19 -11 -12 -51
14 -75 14 -13 21 -28 17 -32 -13 -13 -39 1 -46 25 -5 20 -6 21 -26 2 -25 -22
-43 -10 -38 26 2 16 9 23 21 21 9 -2 17 2 17 8 0 5 -7 10 -15 10 -16 0 -20 12
-8 23 3 4 15 -1 26 -10 18 -17 19 -17 16 1 -2 11 -19 24 -40 31 l-36 13 -1
-32z"/>
<path d="M2251 1263 c-21 -4 -23 -9 -17 -41 3 -21 6 -52 6 -70 0 -33 1 -33 33
-27 17 4 38 12 45 17 18 15 15 55 -5 67 -14 7 -15 12 -4 25 24 29 3 40 -58 29z
m31 -28 c0 -5 -5 -11 -11 -13 -6 -2 -11 4 -11 13 0 9 5 15 11 13 6 -2 11 -8
11 -13z m13 -65 c0 -13 -6 -25 -12 -27 -9 -3 -13 6 -13 27 0 21 4 30 13 28 6
-3 12 -15 12 -28z"/>
<path d="M1718 1175 c-19 -49 -22 -65 -12 -65 8 0 14 9 14 20 0 11 4 20 9 20
13 0 33 -28 27 -38 -3 -6 4 -12 15 -15 19 -5 20 -3 14 41 -3 26 -7 56 -8 67
-2 19 -14 34 -28 35 -3 0 -17 -29 -31 -65z m32 3 c0 -16 -3 -19 -11 -11 -6 6
-8 16 -5 22 11 17 16 13 16 -11z"/>
<path d="M2120 1215 c-17 -20 -17 -80 0 -100 7 -8 29 -15 49 -15 37 0 37 1 36
40 0 31 -4 40 -17 40 -14 0 -18 -8 -18 -35 0 -43 -14 -46 -28 -6 -16 44 -5 74
25 68 15 -3 22 0 20 7 -6 18 -52 19 -67 1z"/>
<path d="M1890 1165 c0 -29 -3 -60 -6 -69 -5 -13 1 -16 33 -16 57 0 85 40 48
70 -11 9 -12 16 -2 30 14 24 9 29 -36 34 l-37 5 0 -54z m50 20 c0 -8 -4 -15
-10 -15 -5 0 -10 7 -10 15 0 8 5 15 10 15 6 0 10 -7 10 -15z m8 -62 c2 -11 -4
-23 -12 -26 -12 -5 -16 1 -16 24 0 35 23 36 28 2z"/>
<path d="M2069 1213 c0 -5 0 -32 1 -61 1 -47 -1 -53 -17 -50 -15 3 -18 13 -18
56 0 43 -3 52 -17 52 -15 0 -18 -9 -18 -49 0 -27 3 -56 6 -65 7 -19 59 -22 71
-3 10 16 11 127 1 127 -5 0 -8 -3 -9 -7z"/>
<path d="M360 510 l0 -130 80 0 c72 0 84 3 105 24 53 53 53 168 0 214 -22 19
-38 22 -106 22 l-79 0 0 -130z m150 90 c25 -13 43 -73 36 -115 -9 -49 -47 -75
-107 -75 l-49 0 0 100 0 100 51 0 c28 0 59 -4 69 -10z"/>
<path d="M1405 608 c-43 -105 -85 -213 -85 -220 0 -4 8 -8 18 -8 13 0 24 13
35 40 15 40 16 40 70 40 55 0 55 0 71 -40 11 -29 22 -40 37 -40 25 0 27 -10
-39 147 -40 97 -50 113 -70 113 -17 0 -27 -9 -37 -32z m75 -110 c0 -5 -18 -8
-40 -8 -22 0 -40 2 -40 4 0 2 6 19 14 37 7 19 16 43 20 54 6 17 11 12 27 -30
10 -27 19 -53 19 -57z"/>
<path d="M1730 601 l0 -38 -48 5 c-44 4 -51 2 -70 -23 -34 -43 -30 -108 8
-147 26 -25 36 -29 63 -24 18 4 42 7 55 6 22 0 22 2 22 130 0 109 -2 130 -15
130 -11 0 -15 -11 -15 -39z m-26 -64 c9 -7 20 -31 23 -53 7 -52 -21 -90 -59
-81 -48 12 -61 92 -22 131 19 19 35 20 58 3z"/>
<path d="M2053 629 c-7 -7 -13 -21 -13 -31 0 -10 -7 -21 -15 -24 -8 -4 -15
-12 -15 -20 0 -8 7 -14 15 -14 12 0 15 -15 15 -75 0 -63 3 -76 19 -85 21 -11
51 -4 51 12 0 5 -9 12 -20 15 -17 5 -20 14 -20 69 0 50 3 64 15 64 8 0 15 7
15 15 0 8 -6 15 -14 15 -10 0 -16 13 -18 36 -2 28 -5 33 -15 23z"/>
<path d="M2250 510 l0 -130 80 0 c73 0 83 3 105 25 31 30 32 68 4 96 -15 15
-18 24 -10 32 17 17 13 72 -7 90 -14 13 -38 17 -95 17 l-77 0 0 -130z m134 94
c23 -9 20 -51 -4 -64 -12 -6 -38 -10 -58 -8 -35 3 -37 5 -40 41 l-3 37 45 0
c24 0 51 -3 60 -6z m22 -129 c16 -24 16 -27 -1 -45 -14 -15 -31 -20 -72 -20
l-53 0 0 45 0 45 55 0 c47 0 57 -3 71 -25z"/>
<path d="M2930 510 l0 -129 28 -1 c15 0 45 -1 66 -2 46 -2 72 23 82 79 14 73
-33 122 -106 111 -29 -4 -30 -3 -30 34 0 31 -3 38 -20 38 -19 0 -20 -7 -20
-130z m120 20 c43 -43 11 -140 -42 -127 -48 12 -58 102 -15 132 28 19 33 19
57 -5z"/>
<path d="M650 552 c-16 -13 -24 -32 -27 -68 -5 -43 -2 -54 20 -80 21 -24 33
-29 70 -29 46 0 87 24 87 52 0 19 -24 16 -45 -7 -10 -11 -25 -20 -34 -20 -26
0 -61 29 -61 51 0 17 7 19 76 19 65 0 75 2 70 16 -3 9 -6 21 -6 28 0 7 -9 22
-20 34 -27 28 -98 30 -130 4z m100 -22 c32 -32 24 -40 -35 -40 -61 0 -73 16
-33 44 30 21 44 20 68 -4z"/>
<path d="M858 559 c-11 -6 -18 -22 -18 -40 0 -30 3 -33 93 -68 33 -13 35 -39
3 -47 -25 -6 -66 10 -66 26 0 6 -9 10 -20 10 -24 0 -25 -8 -5 -37 33 -47 139
-37 152 15 9 36 -7 55 -63 73 -51 16 -69 43 -36 53 22 7 52 -2 52 -15 0 -5 9
-9 20 -9 26 0 26 26 1 40 -25 13 -91 13 -113 -1z"/>
<path d="M1056 554 c-18 -17 -21 -44 -6 -44 6 0 19 9 30 20 24 24 53 26 74 4
14 -14 22 -34 12 -34 -23 0 -112 -23 -123 -31 -7 -6 -13 -24 -13 -40 0 -41 38
-64 87 -53 21 4 50 7 64 6 l26 -3 -5 83 c-2 46 -9 89 -14 96 -15 18 -113 16
-132 -4z m114 -99 c0 -49 -92 -75 -98 -28 -3 17 3 24 25 29 15 3 33 7 38 9 23
8 35 4 35 -10z"/>
<path d="M1827 552 c-23 -25 -21 -42 3 -42 11 0 20 4 20 10 0 19 41 33 66 21
46 -21 24 -51 -37 -51 -31 0 -79 -38 -79 -63 0 -32 27 -51 71 -49 24 1 60 2
79 2 l35 1 -5 85 c-6 98 -11 104 -86 104 -37 0 -55 -5 -67 -18z m113 -99 c0
-43 -64 -70 -90 -38 -22 27 3 45 78 54 6 0 12 -7 12 -16z"/>
<path d="M2501 485 c3 -48 9 -89 16 -96 12 -12 26 -13 111 -9 l32 1 0 95 c0
77 -3 94 -15 94 -12 0 -15 -14 -15 -70 0 -64 -2 -71 -26 -87 -44 -28 -58 -9
-62 81 -3 69 -5 76 -23 76 -20 0 -21 -5 -18 -85z"/>
<path d="M2730 550 c-31 -31 -28 -119 5 -150 20 -19 32 -22 70 -18 43 5 45 4
39 -16 -4 -11 -12 -24 -18 -28 -20 -13 -66 -9 -72 7 -7 17 -44 21 -44 5 0 -5
9 -19 20 -30 27 -27 89 -27 124 1 25 20 26 23 26 133 l0 112 -65 2 c-53 2 -69
-2 -85 -18z m100 -20 c33 -33 23 -97 -20 -120 -16 -9 -25 -6 -45 14 -16 16
-25 36 -25 56 0 32 30 70 55 70 8 0 24 -9 35 -20z"/>
<path d="M3150 490 c0 -68 3 -83 21 -101 16 -16 28 -20 52 -14 18 3 44 6 60 6
l27 0 0 94 c0 78 -3 95 -15 95 -12 0 -15 -13 -15 -56 0 -93 -41 -141 -84 -98
-12 11 -16 35 -16 85 0 55 -3 69 -15 69 -12 0 -15 -16 -15 -80z"/>
<path d="M3376 551 c-26 -28 -31 -91 -12 -129 18 -35 50 -48 96 -38 24 4 30 2
30 -12 0 -10 -5 -23 -12 -30 -17 -17 -63 -15 -78 3 -15 19 -40 20 -40 2 0 -45
97 -64 141 -28 22 18 24 27 27 133 l4 114 -70 2 c-57 2 -72 -1 -86 -17z m95
-20 c17 -14 23 -28 22 -55 -1 -45 -18 -66 -52 -66 -38 0 -51 17 -51 66 0 33 5
47 22 58 28 20 31 20 59 -3z"/>
<path d="M1030 155 c0 -50 4 -85 10 -85 6 0 10 13 10 29 0 16 7 34 15 41 13
11 18 10 29 -6 33 -47 53 -67 65 -63 8 3 -1 21 -24 53 l-37 48 33 34 c21 22
28 34 18 34 -8 0 -30 -16 -49 -35 -19 -19 -38 -35 -42 -35 -4 0 -8 16 -8 35 0
19 -4 35 -10 35 -6 0 -10 -35 -10 -85z"/>
<path d="M2600 155 l0 -85 53 0 c29 0 58 5 65 12 15 15 16 64 2 73 -7 4 -7 12
0 25 13 24 13 26 -6 44 -10 10 -33 16 -65 16 l-49 0 0 -85z m95 40 c0 -15 -8
-21 -32 -23 -30 -3 -33 -1 -33 23 0 24 3 26 33 23 24 -2 32 -8 32 -23z m5 -60
c18 -21 -4 -45 -41 -45 -26 0 -29 4 -29 30 0 26 3 30 29 30 16 0 34 -7 41 -15z"/>
<path d="M2900 230 c0 -5 5 -10 10 -10 6 0 10 5 10 10 0 6 -4 10 -10 10 -5 0
-10 -4 -10 -10z"/>
<path d="M1204 186 c-10 -8 -16 -18 -11 -22 4 -4 13 -2 19 4 17 17 45 15 52
-3 4 -10 -3 -17 -22 -20 -43 -10 -57 -21 -57 -46 0 -22 4 -24 55 -26 l55 -1
-4 51 c-1 29 -8 58 -13 65 -14 16 -50 15 -74 -2z m66 -64 c0 -14 -23 -32 -42
-32 -23 0 -24 27 0 33 29 8 42 7 42 -1z"/>
<path d="M1343 193 c-21 -4 -23 -10 -23 -64 0 -33 4 -59 10 -59 6 0 10 12 10
28 0 47 11 72 32 72 11 0 18 5 16 12 -5 14 -15 17 -45 11z"/>
<path d="M1414 186 c-26 -20 -10 -32 21 -16 19 10 28 11 37 2 15 -15 7 -23
-34 -31 -28 -6 -33 -11 -33 -36 0 -29 2 -30 51 -32 l51 -1 -5 56 c-3 31 -10
60 -16 64 -18 12 -51 9 -72 -6z m64 -73 c-2 -11 -14 -19 -31 -21 -33 -4 -36
15 -4 28 33 13 39 12 35 -7z"/>
<path d="M1558 193 c-15 -4 -18 -16 -18 -64 0 -33 4 -59 10 -59 6 0 10 22 10
49 0 37 4 50 17 55 24 10 43 -19 43 -66 0 -21 5 -38 10 -38 6 0 10 22 10 49 0
69 -23 90 -82 74z"/>
<path d="M1676 178 c-35 -50 -4 -116 49 -106 20 4 25 2 21 -9 -3 -8 -6 -17 -6
-19 0 -10 -49 -3 -53 9 -2 6 -8 9 -12 5 -17 -16 5 -38 38 -38 48 0 57 15 57
96 l0 72 -31 6 c-45 9 -46 8 -63 -16z m72 -45 c-4 -38 -35 -54 -54 -29 -18 25
-18 41 2 60 23 23 56 3 52 -31z"/>
<path d="M1814 186 c-26 -20 -10 -32 21 -16 19 10 28 11 37 2 15 -15 7 -23
-34 -31 -28 -6 -33 -11 -33 -36 0 -29 1 -30 51 -31 l50 -1 -4 56 c-3 31 -10
59 -16 63 -18 12 -51 9 -72 -6z m64 -73 c-2 -11 -14 -19 -31 -21 -33 -4 -36
15 -4 28 33 13 39 12 35 -7z"/>
<path d="M1946 187 c-26 -19 -13 -54 24 -62 17 -4 32 -11 36 -16 9 -15 -27
-23 -48 -10 -23 14 -33 9 -25 -14 8 -18 67 -21 85 -3 16 16 15 47 0 53 -66 23
-71 26 -60 37 9 9 18 8 37 -2 30 -16 42 -8 20 14 -20 19 -45 21 -69 3z"/>
<path d="M2072 184 c-24 -17 -30 -61 -12 -95 13 -23 72 -26 90 -4 18 21 6 29
-19 13 -16 -10 -26 -10 -39 -2 -28 18 -20 29 26 32 33 3 42 7 42 22 0 23 -26
50 -48 50 -10 0 -28 -7 -40 -16z m56 -16 c19 -19 14 -28 -18 -28 -41 0 -40 33
1 39 3 1 10 -4 17 -11z"/>
<path d="M2213 193 c-21 -4 -23 -10 -23 -64 0 -33 4 -59 10 -59 6 0 10 20 10
44 0 44 19 74 40 61 5 -3 10 -28 10 -56 0 -27 5 -49 10 -49 6 0 10 18 10 39 0
47 24 78 46 60 8 -7 14 -30 14 -55 0 -24 5 -44 10 -44 7 0 10 22 8 56 -3 64
-23 88 -56 67 -12 -7 -24 -8 -33 -2 -15 9 -19 9 -56 2z"/>
<path d="M2774 186 c-26 -19 -10 -33 20 -17 24 13 46 8 46 -9 0 -5 -18 -14
-41 -20 -36 -10 -40 -14 -37 -38 3 -25 6 -27 54 -28 l50 -1 -4 56 c-3 31 -10
59 -16 63 -18 12 -51 9 -72 -6z m64 -73 c-2 -11 -14 -19 -31 -21 -33 -4 -36
15 -4 28 33 13 39 12 35 -7z"/>
<path d="M2900 130 c0 -33 4 -60 10 -60 6 0 10 27 10 60 0 33 -4 60 -10 60 -6
0 -10 -27 -10 -60z"/>
<path d="M2450 130 c0 -5 14 -10 30 -10 17 0 30 5 30 10 0 6 -13 10 -30 10
-16 0 -30 -4 -30 -10z"/>
</g>
</svg>
